<?xml version="1.0" standalone="no"?>
<!DOCTYPE svg PUBLIC "-//W3C//DTD SVG 20010904//EN"
 "http://www.w3.org/TR/2001/REC-SVG-20010904/DTD/svg10.dtd">
<svg version="1.0" xmlns="http://www.w3.org/2000/svg"
 width="1462.000000pt" height="810.000000pt" viewBox="0 0 1462.000000 810.000000"
 preserveAspectRatio="xMidYMid meet">

<g transform="translate(0.000000,810.000000) scale(0.100000,-0.100000)"
fill="#000000" stroke="none">
<path d="M4245 8069 c-38 -5 -110 -14 -160 -20 -111 -14 -132 -22 -203 -81
-18 -16 -40 -28 -50 -28 -9 0 -30 -11 -46 -25 -16 -14 -33 -25 -38 -25 -19 0
-97 -82 -91 -96 3 -8 -1 -22 -10 -32 -8 -9 -24 -36 -36 -59 -24 -47 -38 -60
-53 -45 -15 15 -38 3 -38 -18 0 -11 -4 -21 -9 -25 -17 -10 -41 26 -41 60 0 43
-25 38 -35 -6 -4 -18 -25 -44 -52 -66 -75 -62 -132 -125 -165 -180 -16 -29
-33 -53 -38 -53 -11 0 -61 -51 -81 -85 -11 -16 -19 -43 -19 -59 0 -16 -13 -52
-29 -80 -20 -35 -31 -72 -35 -119 -5 -53 -18 -91 -61 -180 -30 -61 -68 -130
-85 -152 -53 -71 -61 -92 -142 -380 -11 -38 -25 -83 -31 -100 -18 -47 -14
-358 5 -420 26 -83 74 -179 107 -217 39 -44 112 -92 171 -113 25 -8 54 -19 65
-25 70 -33 227 -40 330 -15 90 21 103 20 107 -12 2 -19 8 -27 18 -24 8 1 25 4
37 5 13 0 23 7 23 14 0 6 9 12 19 12 32 0 71 -18 71 -33 0 -28 37 -50 72 -43
25 5 30 4 21 -5 -7 -7 -55 -15 -108 -19 -101 -8 -145 -26 -145 -59 0 -24 25
-34 50 -21 26 14 200 13 253 -2 39 -10 48 -9 98 15 69 32 140 102 200 197 27
41 61 93 77 115 71 99 102 146 157 238 32 54 72 109 89 122 17 14 40 34 51 45
13 13 28 17 42 14 30 -8 117 13 181 44 49 24 54 24 69 9 15 -15 16 -22 4 -59
-7 -24 -14 -60 -15 -80 -1 -20 -9 -45 -18 -55 -31 -36 -48 -83 -48 -135 0 -29
-4 -67 -9 -84 -5 -17 -5 -37 -1 -45 4 -8 3 -54 -1 -104 -7 -78 -6 -93 10 -115
9 -14 20 -33 24 -44 6 -16 4 -18 -20 -12 -64 16 -67 14 -76 -38 -7 -44 -5 -53
18 -87 l27 -38 -1 -200 c-1 -110 -5 -211 -10 -224 -5 -13 -9 -32 -8 -42 3 -28
-18 -28 -51 0 -22 19 -32 36 -34 63 -3 34 -6 37 -35 40 -30 3 -33 1 -33 -23 0
-18 8 -29 26 -37 18 -8 24 -17 20 -31 -5 -21 15 -47 52 -66 18 -10 23 -9 28 4
3 8 12 15 20 15 23 0 36 -40 30 -94 -3 -28 -2 -77 2 -109 6 -50 11 -61 36 -75
27 -17 28 -16 45 8 9 13 29 38 44 55 55 58 62 113 20 140 -45 29 -95 86 -89
102 3 8 6 19 6 24 0 5 7 9 15 9 11 0 15 11 15 43 0 23 3 65 6 93 6 47 8 50 30
46 20 -4 27 2 39 32 21 50 64 51 111 0 19 -19 34 -41 34 -48 0 -24 49 -100 90
-140 25 -24 42 -52 46 -74 8 -39 1 -46 -61 -63 -52 -14 -165 -126 -165 -163 0
-14 -4 -28 -10 -31 -5 -3 -10 -25 -10 -49 0 -47 17 -69 66 -86 16 -6 40 -26
53 -46 32 -47 44 -52 147 -64 184 -21 438 -7 516 28 62 27 145 106 175 166 14
28 34 63 45 79 32 45 49 119 64 286 10 101 -25 177 -78 169 -30 -4 -44 -47
-63 -193 -21 -155 -33 -190 -100 -274 -71 -87 -109 -109 -218 -121 -113 -13
-109 -14 -95 9 10 17 8 23 -13 43 -13 13 -30 39 -38 58 -7 19 -26 66 -42 104
-16 38 -29 74 -29 81 0 7 -14 45 -31 86 -17 41 -36 90 -41 109 -6 18 -21 48
-34 66 -13 17 -61 103 -105 190 -44 87 -88 167 -97 177 -16 18 -35 19 -142 5
-24 -3 -25 -1 -22 42 2 25 10 86 19 135 8 50 17 124 18 165 4 102 32 336 46
385 13 48 27 143 35 243 9 105 -4 112 -67 40 -36 -41 -61 -61 -89 -68 -42 -11
-60 -41 -39 -66 6 -8 9 -17 6 -21 -18 -17 -126 -52 -170 -54 -43 -3 -52 0 -60
18 -12 27 5 53 57 88 20 14 39 25 41 25 3 0 33 13 67 29 35 15 68 30 74 32 37
13 103 92 149 179 87 161 116 263 80 276 -11 5 -12 10 -2 24 9 15 8 23 -7 39
-27 30 -41 26 -78 -21 -18 -23 -49 -58 -69 -77 -20 -20 -44 -50 -52 -67 -10
-18 -29 -36 -46 -42 -17 -6 -78 -53 -136 -104 -145 -127 -220 -162 -239 -112
-6 16 74 100 205 214 122 107 171 155 185 181 7 15 38 43 69 63 30 20 60 47
67 59 15 29 16 143 1 158 -18 18 -61 -14 -80 -58 -8 -20 -31 -59 -52 -87 -21
-28 -41 -60 -45 -71 -4 -11 -51 -53 -104 -93 -53 -40 -128 -100 -165 -132 -74
-63 -135 -100 -168 -100 -11 0 -31 11 -45 25 -25 26 -44 26 -44 0 0 -7 -21
-35 -47 -61 -49 -48 -85 -97 -145 -192 -104 -167 -149 -230 -187 -260 -39 -31
-67 -66 -117 -149 -38 -61 -114 -131 -172 -159 -173 -80 -187 -84 -289 -85
-128 -2 -186 22 -260 108 -60 69 -74 95 -103 191 -21 70 -22 80 -11 194 16
168 34 240 104 413 58 143 98 222 138 273 10 13 37 83 59 155 22 73 47 148 54
167 8 19 20 61 27 93 7 33 21 69 31 82 10 13 21 37 24 54 4 18 17 39 29 49 12
10 34 36 48 59 20 32 36 45 67 53 23 6 47 21 57 36 33 48 53 64 77 64 14 0 32
7 40 16 22 21 20 6 -4 -44 -19 -40 -28 -122 -12 -122 4 0 18 16 31 35 31 46
175 174 226 202 73 39 175 62 320 72 77 6 180 15 230 21 72 9 105 8 170 -4 44
-8 105 -18 135 -21 83 -9 204 -43 278 -78 77 -36 85 -42 172 -124 36 -34 90
-82 120 -106 99 -81 141 -130 175 -203 22 -47 46 -81 69 -99 20 -15 62 -66 94
-114 56 -82 74 -123 103 -236 12 -50 88 -175 138 -228 73 -79 170 -94 270 -43
63 33 195 121 227 153 56 55 210 113 303 113 l66 0 50 -59 c60 -69 104 -101
144 -101 15 0 40 -9 54 -20 32 -25 81 -26 106 -1 19 19 41 78 41 111 1 33 29
94 46 101 27 11 163 10 204 -1 19 -5 73 -19 120 -30 111 -28 160 -54 160 -83
0 -12 9 -68 20 -124 11 -56 17 -109 14 -118 -3 -8 -3 -26 0 -39 9 -36 52 -47
149 -36 73 8 85 13 110 40 24 27 27 38 27 105 l0 75 58 -39 c72 -49 116 -71
140 -71 11 0 30 -8 43 -18 13 -10 38 -24 54 -32 44 -21 125 -98 164 -155 128
-187 135 -202 125 -287 -8 -71 -1 -75 91 -58 58 11 65 15 65 36 0 16 6 24 18
24 26 0 124 -42 156 -68 16 -12 37 -22 48 -22 11 0 26 -13 36 -31 32 -58 92
-127 115 -133 13 -3 37 -25 53 -48 16 -24 47 -64 70 -90 42 -48 60 -102 42
-125 -5 -6 -16 -9 -24 -6 -8 3 -14 0 -14 -6 0 -7 7 -14 15 -17 8 -3 30 -21 50
-40 20 -19 40 -34 44 -34 8 0 35 48 36 65 0 6 4 15 8 21 4 7 -2 23 -13 37 -11
14 -20 30 -20 36 0 24 28 9 57 -31 70 -96 118 -156 163 -203 27 -27 69 -85 94
-128 44 -75 65 -104 150 -205 22 -26 51 -72 65 -102 15 -31 36 -69 48 -85 11
-17 42 -77 68 -135 26 -58 60 -118 74 -135 15 -16 47 -77 71 -135 23 -58 55
-130 70 -160 15 -30 31 -66 35 -80 4 -14 17 -38 29 -55 49 -65 147 -246 191
-350 53 -124 115 -242 150 -284 27 -31 59 -107 69 -163 6 -35 34 -100 76 -178
10 -19 23 -54 29 -76 7 -25 18 -44 29 -46 21 -6 72 -100 72 -133 0 -32 35 -72
69 -80 27 -6 28 -8 33 -83 7 -100 26 -164 47 -160 11 2 18 18 21 48 3 30 10
46 20 48 27 5 62 -43 67 -92 5 -37 0 -54 -24 -98 -17 -29 -33 -75 -37 -101 -9
-57 -29 -109 -50 -127 -30 -24 -13 -65 22 -53 18 7 42 58 42 91 0 32 16 52 42
52 11 0 30 20 49 50 17 28 35 50 40 50 5 0 12 -12 15 -27 10 -42 138 -211 195
-259 20 -16 91 -88 158 -159 109 -117 121 -133 121 -166 0 -50 27 -80 113
-127 39 -22 78 -50 85 -61 15 -26 81 -68 119 -77 15 -3 57 -21 93 -39 36 -17
78 -35 94 -39 16 -4 47 -25 69 -48 21 -22 64 -51 94 -64 30 -14 71 -37 91 -53
21 -16 60 -37 87 -47 28 -10 75 -39 105 -65 51 -44 185 -119 211 -119 6 0 39
-14 73 -32 198 -103 248 -122 446 -169 131 -32 290 -69 335 -79 22 -5 53 -13
68 -19 16 -6 45 -11 66 -11 22 0 44 -6 51 -15 11 -13 6 -15 -33 -15 -64 0
-107 -10 -107 -26 0 -9 -12 -14 -36 -14 -19 0 -44 -5 -56 -11 -25 -14 -329
-34 -468 -31 -244 4 -751 82 -927 141 -34 12 -75 21 -90 21 -15 0 -48 12 -73
26 -39 23 -313 164 -533 275 -90 46 -247 120 -308 147 -56 24 -219 130 -219
142 0 18 -141 101 -218 129 -45 16 -88 35 -96 42 -86 77 -161 135 -205 157
-14 8 -48 29 -76 47 -126 82 -194 123 -214 130 -12 4 -37 19 -54 35 -34 29
-384 194 -477 225 -30 10 -62 24 -70 31 -28 24 -98 43 -178 49 -110 9 -121 12
-133 42 -17 46 -1 83 69 150 36 34 80 69 97 77 52 25 132 94 148 129 9 18 27
50 42 71 14 21 42 70 61 109 35 69 83 145 124 199 11 15 34 58 49 95 16 37 52
120 81 183 76 169 81 186 83 287 2 79 -1 95 -19 120 -12 15 -30 28 -40 28 -23
0 -49 -52 -59 -115 -20 -132 -86 -308 -174 -460 -11 -19 -28 -53 -37 -75 -10
-22 -32 -62 -50 -90 -17 -27 -52 -91 -78 -141 -29 -57 -56 -96 -72 -104 -13
-8 -34 -28 -44 -46 -16 -25 -29 -33 -61 -37 -23 -3 -56 -3 -75 0 -46 8 -135
-22 -167 -55 -35 -37 -55 -112 -39 -147 7 -14 12 -45 12 -68 0 -53 19 -116 63
-209 70 -145 82 -249 46 -396 -27 -113 -50 -177 -104 -287 -56 -114 -108 -244
-129 -317 -24 -85 -38 -296 -34 -530 l3 -207 -35 -36 c-73 -75 -163 -94 -235
-50 -22 13 -58 34 -80 45 -22 12 -76 60 -121 106 -61 64 -87 84 -107 84 -14 0
-42 9 -61 21 -31 18 -36 25 -34 57 2 55 -10 79 -42 91 -19 6 -30 17 -30 28 0
29 25 114 48 163 70 150 111 360 112 562 0 145 -12 213 -50 287 -11 23 -26 67
-31 99 -15 79 -31 106 -94 152 -52 38 -75 78 -75 129 0 8 -14 45 -31 81 -27
60 -35 69 -70 79 -48 14 -70 46 -80 115 -5 28 -15 89 -24 136 -9 47 -20 146
-25 220 -5 74 -14 169 -19 210 -6 41 -15 113 -21 160 -10 85 -20 149 -41 258
-6 31 -13 123 -16 203 l-4 145 41 125 c23 68 52 147 65 174 13 28 30 66 39 85
16 36 32 65 76 135 64 103 82 156 90 267 5 59 11 112 15 117 11 18 7 212 -5
226 -15 18 -37 9 -46 -18 -4 -12 -19 -49 -34 -82 -15 -33 -35 -87 -45 -120
-10 -33 -24 -80 -31 -104 -8 -25 -14 -56 -14 -70 0 -33 -47 -174 -75 -226 -51
-93 -98 -172 -120 -201 -22 -29 -34 -68 -75 -244 -18 -75 -15 -204 10 -400 30
-237 42 -342 38 -345 -12 -11 -158 24 -273 65 -27 10 -81 26 -120 34 -38 9
-90 21 -115 27 -56 14 -244 76 -285 94 -16 7 -68 25 -115 40 -47 15 -105 38
-129 52 -23 14 -85 40 -136 58 -177 63 -195 75 -348 216 -45 41 -50 51 -55 97
-4 44 -1 58 20 90 36 55 92 143 112 175 9 15 26 56 36 90 11 34 30 78 43 97
13 19 28 46 32 60 4 14 13 32 20 40 7 8 36 70 64 137 51 119 72 195 74 260 0
22 6 35 18 38 11 4 16 12 12 21 -7 19 -82 19 -128 0 -36 -16 -125 -125 -125
-155 0 -25 20 -41 52 -41 36 0 35 -9 -2 -45 -20 -19 -37 -52 -51 -99 -24 -80
-107 -274 -121 -282 -5 -4 -29 -36 -53 -73 -24 -36 -59 -84 -79 -106 -19 -22
-45 -56 -58 -76 -31 -48 -84 -88 -203 -147 -150 -76 -220 -96 -385 -111 -180
-16 -326 -4 -297 25 4 4 33 9 64 10 153 8 313 32 313 46 0 17 -346 -4 -385
-23 -12 -6 -48 -9 -80 -7 -60 3 -60 3 -65 37 -5 33 -8 35 -89 63 -102 35 -171
44 -456 58 -151 8 -224 16 -233 24 -11 11 7 14 92 20 190 12 435 112 420 171
-3 13 -1 26 5 29 17 11 13 30 -8 43 -17 10 -30 8 -83 -17 -35 -16 -74 -30 -87
-32 -40 -5 -35 19 8 38 31 13 41 24 41 41 0 13 6 23 13 23 19 0 47 33 47 53 0
21 -17 21 -50 2 -36 -20 -37 -19 -37 25 0 33 -7 46 -47 84 -25 25 -46 54 -46
66 0 26 14 25 40 -2 19 -21 20 -21 20 -2 0 27 -62 146 -80 154 -8 4 -30 15
-48 25 -25 13 -56 17 -118 17 -86 -1 -112 -5 -151 -24 -28 -14 -32 -52 -5 -44
33 10 97 20 107 17 5 -1 27 3 47 10 29 9 43 9 67 -1 57 -23 44 -30 -99 -50
-71 -10 -117 -19 -140 -27 -8 -3 -28 -7 -43 -9 -15 -2 -41 -11 -57 -19 -32
-17 -70 -20 -70 -6 0 5 20 27 44 48 40 35 43 42 41 82 -2 42 -16 61 -44 61
-20 0 -112 -103 -136 -153 -16 -33 -27 -43 -53 -48 -46 -9 -78 -43 -103 -108
-18 -48 -19 -61 -9 -92 9 -27 9 -41 1 -57 -8 -15 -8 -27 0 -45 8 -19 8 -31 -4
-53 -22 -43 -7 -74 36 -74 30 0 34 -3 30 -23 -3 -13 4 -33 17 -49 20 -26 24
-27 113 -25 74 2 101 -2 137 -18 l45 -20 -50 -7 c-28 -4 -213 -10 -412 -14
-286 -5 -366 -4 -378 6 -17 14 -48 79 -59 125 -4 17 -14 44 -22 60 -7 17 -24
62 -37 100 -14 39 -39 108 -57 155 -17 47 -38 105 -46 129 -8 25 -20 54 -28
66 -8 12 -24 54 -36 94 -12 40 -36 105 -55 144 -47 101 -115 317 -115 366 0
26 -82 180 -124 233 -11 15 -28 37 -37 50 -22 31 -151 118 -202 135 -22 8 -51
20 -66 27 -14 8 -73 24 -131 36 -58 12 -134 28 -170 37 -123 29 -145 33 -275
53 -71 11 -148 26 -170 34 -40 15 -147 34 -320 57 -98 13 -323 6 -388 -12 -35
-9 -37 -12 -37 -52 0 -23 9 -71 20 -107 11 -36 20 -90 20 -122 0 -49 4 -61 34
-97 42 -50 51 -74 36 -101 -12 -23 5 -51 90 -153 28 -34 40 -63 59 -142 13
-55 32 -112 42 -127 11 -14 19 -29 19 -31 0 -3 24 -48 54 -99 34 -59 56 -109
59 -138 7 -50 73 -208 118 -278 16 -25 29 -50 29 -56 0 -5 18 -37 39 -70 22
-34 46 -83 55 -109 20 -61 52 -123 84 -164 35 -47 24 -63 -41 -63 -53 0 -164
-23 -288 -61 -36 -10 -96 -26 -132 -33 -76 -16 -219 -59 -287 -86 -25 -10 -90
-28 -145 -40 -55 -12 -131 -37 -170 -55 -38 -18 -86 -36 -105 -40 -98 -20
-179 -51 -244 -93 -84 -56 -92 -64 -66 -76 25 -11 45 -70 41 -118 -2 -24 6
-56 22 -90 14 -29 28 -79 32 -112 7 -60 37 -106 69 -106 8 0 17 -9 21 -19 3
-11 15 -23 26 -26 17 -6 19 -12 14 -48 -4 -23 1 -89 10 -147 20 -137 42 -308
42 -340 0 -30 21 -332 34 -490 13 -161 29 -483 37 -758 8 -260 5 -252 82 -252
25 0 74 -9 110 -20 82 -25 131 -25 161 -1 23 18 24 25 21 112 -1 51 2 106 7
123 10 32 28 1070 22 1276 -7 273 -6 415 4 413 21 -5 154 -56 255 -97 58 -24
159 -60 225 -80 200 -61 218 -68 262 -91 23 -13 66 -31 95 -40 29 -10 89 -32
133 -50 188 -76 293 -113 342 -119 71 -9 142 -35 288 -105 70 -34 132 -61 138
-61 7 0 35 -12 62 -25 28 -14 55 -25 62 -25 6 0 19 -7 27 -16 14 -13 16 -66
17 -412 0 -218 4 -597 9 -842 9 -451 12 -486 51 -582 31 -76 203 -115 391 -88
93 14 111 24 144 87 l29 56 -2 904 -3 903 25 16 c18 12 66 18 197 24 95 5 223
13 283 19 174 16 407 42 440 48 52 9 403 21 955 33 572 11 791 21 855 39 22 6
94 11 161 11 138 0 157 -8 157 -61 0 -95 -20 -449 -39 -696 -6 -81 -9 -83 -70
-57 -29 12 -59 15 -117 12 -75 -5 -80 -6 -118 -44 -49 -48 -56 -73 -35 -129
21 -54 65 -77 158 -83 56 -4 74 0 103 17 62 36 62 37 70 -141 3 -90 5 -206 4
-258 -4 -115 8 -147 64 -166 27 -10 45 -10 67 -2 24 8 35 7 54 -5 16 -11 26
-13 34 -5 5 5 36 12 68 14 33 2 76 11 96 20 33 15 41 15 70 3 54 -22 117 0
140 48 14 30 48 40 198 62 84 12 138 33 171 65 32 32 39 33 39 2 0 -26 24 -51
40 -41 5 3 10 14 10 24 0 20 101 68 234 111 l69 23 16 -21 c11 -14 33 -23 67
-28 l52 -6 11 35 c7 19 9 46 7 58 -7 30 10 51 55 67 56 19 77 16 81 -13 4 -35
20 -34 36 1 30 68 39 80 72 90 20 7 36 8 38 3 2 -5 -12 -42 -31 -82 -19 -39
-38 -82 -42 -95 -7 -23 -82 -139 -114 -176 -27 -32 -125 -65 -236 -81 -65 -10
-95 -21 -122 -47 -31 -29 -29 -37 15 -94 50 -64 56 -81 30 -87 -34 -9 -17 -38
57 -93 39 -29 86 -66 105 -83 63 -54 74 -61 159 -87 82 -26 90 -26 264 -20 98
3 183 9 189 12 23 14 142 4 205 -17 55 -18 80 -21 144 -16 94 8 200 55 247
112 29 36 30 38 24 123 -3 48 -5 195 -6 327 0 218 2 249 23 340 13 55 31 111
41 125 10 14 21 36 25 50 16 53 112 267 132 293 6 6 18 55 28 107 14 75 16
117 10 205 -12 186 -13 170 15 168 66 -6 149 -22 169 -33 41 -21 183 -70 206
-70 20 0 120 -44 230 -102 22 -12 58 -31 80 -42 22 -12 52 -34 68 -49 15 -16
47 -37 70 -47 24 -11 52 -29 62 -40 20 -22 189 -140 201 -140 23 0 136 -69
174 -107 25 -24 68 -56 95 -70 28 -14 64 -36 80 -48 17 -12 44 -29 60 -37 79
-40 156 -85 216 -125 37 -24 102 -59 145 -77 185 -77 281 -118 309 -134 17 -8
57 -30 90 -48 89 -49 305 -154 346 -169 20 -7 66 -29 102 -49 36 -20 74 -36
85 -36 11 0 37 -7 58 -17 79 -33 330 -66 649 -83 83 -4 170 -11 195 -15 41 -6
365 13 600 36 52 5 133 11 180 14 75 5 179 29 248 56 13 5 33 9 45 9 47 0 180
41 259 79 126 60 121 54 104 131 -9 36 -18 82 -21 102 -9 57 -23 66 -91 57
-101 -13 -293 -10 -424 6 -358 44 -432 58 -525 100 -27 12 -77 25 -110 29 -34
4 -78 18 -102 32 -23 13 -49 24 -58 24 -20 0 -125 51 -195 95 -30 19 -75 44
-100 56 -110 53 -167 84 -195 104 -16 13 -69 41 -117 64 -49 23 -88 46 -88 51
0 5 -19 22 -42 36 -24 14 -47 31 -53 38 -36 41 -151 130 -201 155 -32 17 -78
48 -102 70 -23 22 -74 60 -112 86 -39 26 -92 71 -118 101 -26 29 -89 90 -139
135 -51 45 -93 88 -93 94 0 7 -20 39 -45 70 -24 32 -47 66 -50 76 -4 10 -31
36 -61 57 -30 21 -68 59 -84 83 -17 24 -50 71 -75 104 -24 33 -53 76 -64 95
-10 20 -43 67 -73 105 -29 39 -62 93 -72 120 -18 48 -57 132 -97 205 -132 249
-154 288 -173 309 -9 10 -24 42 -35 72 -10 30 -53 124 -94 209 -42 85 -85 180
-97 210 -12 30 -36 78 -54 105 -43 65 -86 149 -132 255 -20 47 -65 144 -100
217 -35 73 -64 135 -64 138 0 3 -14 24 -31 48 -17 23 -57 96 -88 162 -32 67
-71 136 -88 155 -16 19 -46 60 -66 90 -20 30 -63 93 -96 140 -33 47 -80 114
-105 150 -24 36 -74 92 -111 125 -36 33 -80 83 -97 110 -79 127 -102 155 -183
233 -48 46 -112 99 -141 118 -29 19 -70 55 -91 81 -76 93 -129 146 -193 191
-36 25 -86 64 -111 87 -26 22 -73 55 -105 74 -33 18 -97 59 -143 89 -47 31
-97 63 -111 72 -15 8 -67 42 -116 74 -83 55 -395 216 -420 216 -6 0 -33 10
-59 21 -60 27 -288 107 -335 119 -81 19 -149 32 -215 41 -289 40 -391 45 -520
24 -55 -9 -127 -20 -160 -25 -135 -20 -189 -32 -258 -59 -40 -15 -106 -38
-147 -51 -41 -13 -109 -35 -150 -50 -41 -15 -99 -34 -129 -41 l-53 -13 -27 33
c-15 18 -46 76 -70 129 -37 84 -101 187 -221 359 -16 24 -36 56 -44 72 -26 50
-115 139 -211 211 -51 39 -99 70 -107 70 -8 0 -27 13 -42 29 -15 15 -50 36
-79 46 -38 13 -61 28 -82 57 -45 60 -78 78 -255 139 -167 58 -407 88 -555 68z
m485 -158 c0 -24 -26 -35 -34 -14 -8 19 1 33 20 33 8 0 14 -9 14 -19z m-805
-81 c-3 -5 -11 -10 -16 -10 -6 0 -7 5 -4 10 3 6 11 10 16 10 6 0 7 -4 4 -10z
m1039 -75 c11 -8 16 -18 13 -22 -4 -3 -16 3 -27 15 -23 25 -15 29 14 7z m440
-294 c-8 -8 -44 38 -44 57 0 10 10 3 25 -18 14 -18 22 -36 19 -39z m-544 -871
c0 -33 -79 -169 -134 -233 -33 -37 -72 -69 -111 -89 -33 -17 -81 -50 -107 -74
-26 -24 -52 -44 -59 -44 -20 0 -38 33 -39 72 0 34 5 39 84 96 46 33 94 66 106
72 12 6 72 58 133 116 62 57 115 104 120 104 4 0 7 -9 7 -20z m-525 -411 c6
-24 2 -38 -14 -58 -12 -14 -30 -44 -41 -66 -16 -35 -17 -42 -4 -56 8 -8 14
-20 14 -26 0 -17 -58 -75 -69 -69 -5 3 -12 -5 -15 -19 -6 -24 -26 -36 -26 -15
0 6 5 10 12 10 6 0 9 3 6 6 -4 3 -15 1 -25 -4 -26 -15 -53 8 -60 51 -7 44 22
95 75 134 56 40 112 103 112 124 0 31 28 21 35 -12z m4370 -101 c22 -18 44
-39 49 -47 5 -8 20 -25 33 -37 12 -12 23 -24 23 -28 0 -9 -28 -7 -32 2 -1 5
-28 26 -58 48 -62 43 -70 52 -70 77 0 24 10 22 55 -15z m215 -102 c0 -3 -4 -8
-10 -11 -5 -3 -10 -1 -10 4 0 6 5 11 10 11 6 0 10 -2 10 -4z m-4850 -145 c-5
-11 -10 -30 -10 -43 1 -29 25 -64 35 -49 11 18 35 12 35 -9 0 -12 -9 -22 -23
-25 -16 -5 -32 -24 -50 -65 -29 -63 -50 -78 -73 -55 -9 8 -20 15 -25 15 -5 0
-9 20 -9 43 0 46 16 69 58 81 24 8 27 18 12 47 -14 26 13 79 41 79 16 0 18 -3
9 -19z m103 -16 c-7 -21 -13 -19 -13 6 0 11 4 18 10 14 5 -3 7 -12 3 -20z
m5019 -127 c-13 -13 -11 -16 -76 61 -70 83 -55 96 21 18 50 -51 63 -71 55 -79z
m-5442 -203 c0 -17 -39 -75 -51 -75 -4 0 -9 11 -12 25 -3 19 2 31 21 45 30 24
42 25 42 5z m200 -80 c0 -30 -7 -40 -47 -70 -27 -19 -56 -35 -66 -35 -16 0
-14 6 12 37 31 37 41 73 20 73 -5 0 -7 5 -4 10 4 6 11 8 16 5 5 -4 17 -1 26 4
32 19 43 13 43 -24z m880 -327 c38 -5 34 -47 -7 -73 -18 -11 -32 -25 -33 -31
0 -7 -7 -15 -16 -18 -15 -6 -16 1 -9 66 8 83 12 95 28 74 7 -8 23 -16 37 -18z
m-3095 -129 c50 -19 97 -124 110 -252 9 -83 -4 -114 -49 -123 -20 -3 -47 -3
-60 0 -27 7 -63 64 -86 136 -7 25 -17 50 -20 55 -4 6 -10 44 -14 86 -5 63 -4
80 9 93 19 19 66 21 110 5z m2975 -427 c0 -26 -11 -34 -27 -21 -20 17 -16 39
7 39 13 0 20 -7 20 -18z m-260 -22 c0 -5 -2 -10 -4 -10 -3 0 -8 5 -11 10 -3 6
-1 10 4 10 6 0 11 -4 11 -10z m598 -29 c-19 -24 -25 -27 -37 -15 -19 18 2 44
36 44 l25 0 -24 -29z m-863 -41 c3 -5 28 -10 55 -10 27 0 52 5 55 10 3 6 29
10 57 10 39 0 57 -5 75 -22 35 -33 30 -47 -19 -46 -24 1 -81 -2 -128 -5 -66
-5 -92 -3 -114 8 -15 8 -37 15 -47 15 -24 0 -25 19 -1 26 9 3 24 9 32 14 20
12 28 12 35 0z m-287 -62 c-6 -16 -58 -46 -83 -47 -13 -1 -4 9 25 28 50 32 64
37 58 19z m92 -8 c0 -12 -28 -25 -36 -17 -9 9 6 27 22 27 8 0 14 -5 14 -10z
m470 -40 c0 -16 -7 -20 -35 -20 -19 0 -35 -4 -35 -10 0 -5 10 -10 23 -10 33 0
71 -29 58 -44 -18 -21 -238 -66 -322 -66 -52 0 -79 -7 -79 -21 0 -5 7 -9 16
-9 8 0 22 -7 30 -15 9 -8 33 -15 55 -15 78 0 51 -18 -160 -110 -75 -32 -116
-34 -127 -5 -7 17 41 100 69 120 33 23 9 36 -66 37 -37 0 -67 5 -67 10 0 37
84 128 118 128 12 0 37 7 54 16 25 13 49 15 127 10 231 -16 266 -17 252 -8
-23 17 -2 32 45 32 37 0 44 -3 44 -20z m127 -186 c-3 -3 -12 -4 -19 -1 -8 3
-5 6 6 6 11 1 17 -2 13 -5z m-54 -21 c-7 -2 -19 -2 -25 0 -7 3 -2 5 12 5 14 0
19 -2 13 -5z m70 -110 c-7 -2 -19 -2 -25 0 -7 3 -2 5 12 5 14 0 19 -2 13 -5z
m-251 -27 c-2 -10 2 -23 10 -27 9 -6 4 -9 -14 -9 -17 0 -31 7 -38 20 -6 11
-18 20 -28 21 -11 1 -8 4 8 9 40 13 65 8 62 -14z m168 10 c0 -2 -11 -6 -25 -8
-14 -3 -25 -1 -25 3 0 5 11 9 25 9 14 0 25 -2 25 -4z m-255 -16 c3 -5 1 -10
-4 -10 -6 0 -11 5 -11 10 0 6 2 10 4 10 3 0 8 -4 11 -10z m-228 -6 c-3 -3 -12
-4 -19 -1 -8 3 -5 6 6 6 11 1 17 -2 13 -5z m96 -111 c-7 -2 -19 -2 -25 0 -7 3
-2 5 12 5 14 0 19 -2 13 -5z m-2720 -144 c-15 -15 -93 -24 -93 -11 0 13 22 19
70 21 24 1 31 -2 23 -10z m4537 -4 c0 -10 -74 -54 -83 -48 -5 3 8 16 29 29 38
23 54 29 54 19z m-4661 -14 c10 -6 1 -11 -28 -16 -45 -7 -65 0 -41 15 19 12
51 12 69 1z m-104 -21 l20 -9 -20 -1 c-11 -2 -25 -2 -32 -1 -7 1 -21 -7 -31
-17 -22 -22 -119 -39 -134 -24 -10 10 -8 11 77 33 22 6 51 14 65 19 32 10 31
10 55 0z m623 -95 c182 -58 307 -96 462 -140 91 -26 196 -60 235 -77 38 -16
96 -34 130 -39 33 -6 74 -17 90 -25 48 -25 106 -42 165 -49 30 -4 71 -11 90
-15 19 -5 64 -16 100 -24 36 -8 90 -20 120 -27 86 -20 900 -13 1390 13 171 9
237 9 271 0 37 -9 58 -9 100 2 100 25 148 27 180 9 24 -14 34 -15 62 -5 50 18
147 15 219 -8 34 -11 82 -20 106 -20 36 0 43 3 40 18 -2 12 -16 19 -52 23 -34
4 -54 12 -67 28 -25 30 -24 39 5 53 22 9 23 13 10 25 -8 8 -14 18 -14 22 0 3
42 34 93 68 65 43 112 66 162 79 39 10 98 30 133 45 34 16 89 34 122 41 l60
12 82 -44 c46 -24 110 -58 143 -76 38 -21 71 -48 91 -75 22 -32 41 -47 71 -55
22 -7 55 -19 73 -29 38 -20 481 -165 503 -165 8 0 26 -12 41 -26 21 -21 32
-25 56 -20 19 3 40 0 53 -8 12 -8 38 -17 57 -21 19 -4 51 -15 70 -25 49 -25
325 -107 385 -115 28 -4 66 -12 85 -18 34 -10 34 -11 10 -17 -20 -5 -26 -14
-31 -45 -8 -51 22 -227 40 -233 10 -3 12 2 8 19 -5 20 -10 182 -7 214 0 6 5 2
11 -9 13 -22 36 -171 49 -313 7 -84 16 -118 50 -200 23 -54 55 -134 71 -178
16 -44 36 -93 45 -110 13 -25 13 -40 3 -95 -6 -37 -12 -183 -13 -340 -2 -272
-2 -276 -28 -331 -24 -53 -28 -56 -89 -78 -35 -13 -89 -30 -119 -37 -106 -28
-135 -35 -167 -45 -18 -6 -37 -7 -43 -4 -12 7 -12 101 -1 130 5 11 5 30 0 42
-5 13 -13 114 -19 225 -7 112 -15 207 -19 211 -4 4 -11 -67 -15 -158 -5 -123
-4 -175 5 -200 10 -27 11 -60 2 -146 -6 -61 -16 -116 -22 -122 -6 -6 -11 -28
-11 -49 0 -27 -4 -38 -15 -38 -18 0 -19 12 -3 28 9 9 8 35 -2 112 -11 84 -11
108 0 138 7 19 12 57 11 83 0 27 4 51 10 55 8 4 8 9 1 13 -18 11 -35 247 -27
366 4 61 11 182 14 270 5 141 8 160 24 163 16 3 17 -10 19 -165 0 -92 0 -178
-1 -189 -1 -12 3 -32 8 -45 9 -22 10 -22 11 -4 1 11 1 49 0 85 -2 36 -3 232
-3 435 -1 356 0 372 20 417 24 52 45 67 95 69 18 1 4 5 -32 10 -71 9 -260 3
-355 -10 -33 -5 -71 -9 -85 -9 -14 1 -99 -6 -190 -15 -315 -30 -932 -68 -1535
-95 -137 -7 -349 -16 -470 -22 -121 -6 -456 -16 -745 -22 -289 -6 -545 -12
-570 -13 -114 -6 -214 -16 -224 -23 -10 -6 -90 -16 -220 -28 -70 -6 -94 -17
-107 -51 -8 -21 -13 -24 -37 -18 -15 4 -45 11 -67 16 -55 10 -170 43 -225 64
-47 18 -124 41 -176 54 -16 5 -41 15 -55 24 -13 8 -60 27 -104 40 -213 68
-276 87 -348 106 -43 12 -97 31 -120 42 -22 12 -71 30 -108 40 -37 10 -129 46
-204 79 -74 33 -143 60 -152 60 -9 0 -30 4 -47 10 -17 5 -85 26 -151 46 -185
57 -299 95 -310 104 -13 11 -193 73 -305 106 -131 39 -145 70 -43 99 32 10 83
26 113 37 30 11 86 26 125 34 38 7 92 20 120 28 52 15 238 45 315 51 101 7
195 17 199 21 2 2 58 4 123 4 99 0 132 -4 196 -25z m3722 -29 c-66 -23 -230
-42 -230 -27 0 29 90 46 255 49 39 0 38 0 -25 -22z m-390 -36 c14 -5 34 -11
45 -13 11 -2 -4 -7 -33 -11 -68 -10 -172 1 -172 19 0 8 8 16 18 18 22 6 110
-2 142 -13z m-4452 -9 c10 -6 4 -10 -18 -15 -48 -9 -128 -7 -135 3 -9 16 130
27 153 12z m-231 -247 c24 -13 50 -24 59 -24 8 0 44 -13 79 -29 36 -17 86 -33
111 -37 26 -4 110 -29 188 -55 77 -27 195 -67 261 -88 66 -21 145 -50 175 -64
30 -13 95 -34 143 -46 49 -12 109 -32 135 -46 26 -13 81 -31 122 -41 41 -9 97
-26 124 -36 27 -10 72 -24 100 -30 28 -5 66 -21 84 -35 40 -30 260 -110 392
-143 19 -5 87 -25 150 -44 63 -19 124 -36 135 -39 59 -16 279 -97 288 -106 8
-8 6 -27 -6 -64 -21 -66 -22 -101 -2 -121 10 -10 12 -21 7 -37 -7 -19 -10 -20
-15 -6 -5 14 -21 17 -83 17 -65 0 -91 6 -168 36 -49 20 -113 39 -141 44 -48 8
-98 26 -158 57 -15 8 -57 23 -93 33 -36 11 -72 24 -79 30 -7 6 -42 19 -78 29
-35 10 -86 29 -113 41 -68 30 -121 47 -174 55 -25 4 -54 12 -65 19 -25 15 -86
37 -185 67 -41 12 -87 31 -102 41 -14 10 -32 18 -39 18 -18 0 -182 50 -194 60
-5 4 -35 15 -65 25 -69 22 -170 65 -190 81 -8 6 -33 17 -55 24 -22 7 -86 34
-143 61 -57 27 -107 49 -111 49 -8 0 -187 81 -225 101 -10 6 -52 22 -95 36
-84 28 -147 57 -173 80 -13 12 -16 26 -12 62 3 25 7 51 9 57 5 19 154 -5 202
-32z m7 -385 c-3 -5 -10 -7 -15 -3 -5 3 -7 10 -3 15 3 5 10 7 15 3 5 -3 7 -10
3 -15z m6922 -244 c-4 -36 -11 -76 -16 -89 -5 -14 -6 -41 -3 -60 5 -32 3 -36
-16 -36 -12 0 -36 -7 -53 -16 -31 -16 -32 -16 -54 10 -28 32 -32 32 -43 3 -8
-20 -15 -23 -53 -21 -23 2 -48 3 -53 3 -7 1 -9 16 -7 36 3 26 0 35 -11 35 -20
0 -29 -27 -17 -51 17 -31 3 -39 -66 -39 -55 0 -64 3 -64 18 0 26 20 42 52 42
15 0 28 5 28 11 0 12 -89 8 -213 -8 -53 -6 -72 -28 -43 -49 16 -11 15 -13 -11
-18 -15 -3 -107 -8 -203 -11 -96 -3 -193 -10 -215 -15 -22 -5 -121 -12 -220
-15 -270 -7 -880 -23 -1140 -29 -228 -5 -399 -18 -485 -36 -25 -5 -137 -14
-250 -20 -235 -12 -523 -35 -625 -49 -136 -20 -450 -52 -474 -49 -24 3 -24 4
-7 21 10 10 33 17 55 17 43 0 61 14 53 42 -4 18 -11 20 -61 15 -31 -4 -74 -3
-96 1 -38 7 -40 10 -38 41 1 40 32 74 105 119 58 34 181 71 240 72 20 0 48 4
63 10 14 5 159 12 323 15 669 11 873 16 982 25 153 13 560 31 570 25 5 -3 77
-1 162 5 84 5 293 15 463 22 171 6 333 13 360 15 28 1 115 5 195 8 80 2 168 9
195 14 28 6 88 13 135 16 47 3 135 12 195 19 61 7 168 14 239 15 l129 1 -7
-65z m1994 -110 c0 -25 -119 -137 -142 -133 -28 4 -42 29 -34 61 11 46 176
113 176 72z m-8836 -81 c20 -74 22 -218 4 -212 -15 5 -23 53 -33 193 -8 111 2
118 29 19z m122 -3 c5 -5 25 -11 44 -13 l35 -3 -5 -60 c-8 -92 -4 -285 7 -430
6 -77 7 -205 3 -315 -5 -115 -4 -200 2 -225 7 -26 7 -101 2 -210 l-9 -170 -45
0 -45 0 -1 115 c0 63 -8 216 -17 340 -26 342 -36 516 -31 536 6 24 24 231 30
352 5 89 10 102 30 83z m6666 -98 c2 -10 0 -40 -4 -68 -16 -100 -21 -538 -9
-653 10 -89 10 -115 0 -134 -7 -13 -12 -48 -11 -78 2 -52 1 -53 -12 -30 -7 14
-16 41 -20 61 -8 44 -36 54 -93 34 -52 -18 -87 -2 -79 36 6 30 -20 93 -35 84
-12 -8 -11 -32 3 -71 10 -29 9 -35 -19 -70 -52 -67 -63 -97 -63 -179 0 -60 -3
-75 -15 -75 -11 0 -15 12 -15 48 0 27 2 51 5 53 2 3 7 214 10 469 5 462 11
535 41 547 33 12 61 -13 70 -64 l8 -48 6 65 5 65 59 3 c33 1 73 6 90 11 50 15
74 13 78 -6z m-426 -301 c0 -136 4 -280 8 -321 6 -49 4 -92 -3 -126 -10 -43
-19 -339 -21 -647 l0 -78 -50 0 c-40 0 -51 4 -61 21 -6 13 -13 94 -15 203 -2
99 -9 226 -15 281 -6 55 -10 136 -9 180 4 117 2 131 -11 118 -8 -8 -12 -127
-13 -410 l-1 -398 -64 0 c-63 0 -65 1 -73 30 -4 17 -3 34 2 39 5 5 4 17 -3 30
-10 18 -16 120 -17 276 0 28 12 237 35 600 8 135 15 278 15 318 0 66 2 75 26
97 15 14 32 25 39 25 34 0 38 -28 40 -288 1 -159 6 -265 12 -276 10 -18 11
-17 17 10 3 16 8 114 11 219 6 194 10 235 26 235 5 0 9 5 9 11 0 5 -4 7 -10 4
-6 -4 -10 5 -10 21 0 22 2 25 15 14 12 -10 15 -10 15 2 0 18 34 51 43 41 4 -3
7 -27 7 -52 0 -53 10 -73 28 -62 10 6 10 18 3 51 -9 43 2 101 17 86 4 -4 7
-119 8 -254z m-3835 164 c7 -25 6 -27 -19 -24 -30 3 -43 35 -20 49 20 13 31 6
39 -25z m152 -173 c7 -12 17 -661 17 -1008 -1 -368 -2 -318 6 -540 7 -222 10
-216 -104 -223 -112 -6 -148 2 -167 38 -10 19 -19 83 -26 172 -11 155 -24
1476 -15 1513 5 21 14 24 73 30 38 4 75 11 83 16 19 10 127 12 133 2z m4939
-261 c14 -26 38 -68 52 -94 38 -65 68 -157 62 -183 -3 -13 -31 -37 -66 -59
-34 -21 -71 -54 -84 -75 -13 -20 -30 -42 -39 -50 -14 -11 -17 -9 -23 14 -11
45 25 479 42 507 9 14 29 -8 56 -60z m-1879 -359 c-7 -2 -19 -2 -25 0 -7 3 -2
5 12 5 14 0 19 -2 13 -5z m127 -48 c6 -8 10 -21 8 -30 -3 -14 -5 -14 -25 0
-25 18 -31 45 -9 45 7 0 19 -7 26 -15z m950 -214 c0 -13 -26 -32 -33 -24 -8 7
11 33 24 33 5 0 9 -4 9 -9z m-261 -91 c10 -17 24 -49 31 -71 13 -38 12 -43 -4
-55 -29 -21 -117 -47 -126 -38 -4 5 -10 28 -14 52 -6 40 -4 46 24 72 16 15 30
34 30 42 0 38 35 37 59 -2z m890 -527 c17 -21 31 -42 31 -48 0 -5 19 -28 41
-50 77 -76 72 -104 -7 -39 -24 20 -59 44 -77 53 -34 17 -73 82 -63 106 10 26
44 16 75 -22z m198 -25 c12 -12 32 -32 44 -43 11 -11 25 -28 30 -37 8 -15 6
-18 -13 -18 -13 0 -34 9 -48 20 -14 11 -37 20 -51 20 -15 0 -29 7 -33 15 -3 8
0 15 6 15 6 0 8 11 5 29 -3 16 -3 31 0 34 8 8 34 -7 60 -35z m251 -21 c2 -10
-3 -17 -12 -17 -9 0 -16 2 -16 4 0 2 -3 12 -6 21 -5 13 -2 16 12 13 10 -2 20
-11 22 -21z"/>
<path d="M4231 5944 c0 -11 3 -14 6 -6 3 7 2 16 -1 19 -3 4 -6 -2 -5 -13z"/>
<path d="M7752 2535 c0 -16 2 -22 5 -12 2 9 2 23 0 30 -3 6 -5 -1 -5 -18z"/>
<path d="M7130 2476 c0 -31 6 -34 13 -6 3 11 1 23 -4 26 -5 3 -9 -6 -9 -20z"/>
<path d="M6643 2443 c-22 -8 -14 -23 11 -23 13 0 29 7 36 15 10 13 9 15 -11
14 -13 0 -30 -3 -36 -6z"/>
<path d="M6583 2423 c9 -2 23 -2 30 0 6 3 -1 5 -18 5 -16 0 -22 -2 -12 -5z"/>
<path d="M7067 1724 c-8 -9 -9 -66 -1 -88 8 -21 34 -8 34 18 -1 30 -24 79 -33
70z"/>
<path d="M4018 7321 c-33 -34 -65 -117 -83 -216 -8 -44 -20 -101 -26 -127 -7
-27 -9 -51 -6 -55 11 -11 35 29 45 77 11 46 72 205 97 250 24 43 42 36 59 -23
14 -47 69 -127 88 -127 10 0 28 62 28 97 0 19 12 55 26 80 18 34 22 49 14 57
-6 6 -53 11 -114 12 -98 1 -103 0 -128 -25z"/>
<path d="M3686 7004 c-7 -19 2 -62 20 -89 8 -11 14 -36 14 -56 0 -46 24 -77
103 -133 90 -63 338 -201 336 -187 -3 28 -61 109 -89 123 -18 9 -48 31 -66 49
-18 17 -43 37 -56 43 -19 9 -24 22 -28 66 -6 68 -13 79 -44 73 -21 -4 -30 3
-57 47 -41 67 -118 104 -133 64z"/>
<path d="M3590 5360 c0 -5 7 -10 15 -10 8 0 15 5 15 10 0 6 -7 10 -15 10 -8 0
-15 -4 -15 -10z"/>
<path d="M4260 4708 c1 -26 34 -54 76 -63 24 -5 26 -4 12 5 -10 6 -18 21 -18
33 0 29 -18 47 -47 47 -17 0 -23 -6 -23 -22z"/>
<path d="M4510 4583 c4 -16 20 -57 35 -92 19 -46 25 -74 20 -97 -5 -27 -2 -35
15 -44 20 -11 20 -10 14 72 -6 82 -22 137 -52 171 -24 27 -42 22 -32 -10z"/>
<path d="M4640 4295 c-7 -14 -20 -25 -28 -25 -9 0 -13 -3 -10 -6 3 -3 24 0 47
6 30 8 41 16 41 30 0 29 -34 25 -50 -5z"/>
<path d="M4807 4303 c-16 -15 -5 -50 22 -76 16 -15 34 -27 40 -27 5 0 14 -7
18 -15 8 -13 12 -13 27 -2 18 13 18 15 1 40 -9 15 -21 27 -26 27 -5 0 -21 14
-36 30 -27 31 -35 35 -46 23z"/>
<path d="M4715 4150 c4 -6 11 -8 16 -5 14 9 11 15 -7 15 -8 0 -12 -5 -9 -10z"/>
<path d="M12575 930 c-3 -5 -24 -10 -46 -10 -25 0 -38 -4 -34 -10 11 -18 83
-50 111 -50 33 0 122 -26 182 -52 52 -22 170 -51 186 -44 6 2 2 5 -9 5 -11 1
-26 10 -32 20 -12 19 -183 108 -262 136 -50 17 -87 19 -96 5z"/>
<path d="M7662 785 c-24 -27 -17 -31 23 -13 14 6 25 17 25 25 0 21 -25 15 -48
-12z"/>
<path d="M13096 730 c6 -6 35 -15 65 -21 115 -22 122 -22 117 -8 -3 8 -27 17
-59 21 -30 3 -72 9 -94 13 -29 4 -37 3 -29 -5z"/>
<path d="M13310 696 c0 -9 39 -13 51 -5 10 6 4 9 -18 9 -18 0 -33 -2 -33 -4z"/>
<path d="M13395 680 c3 -5 30 -10 58 -10 37 0 48 3 37 10 -20 13 -103 13 -95
0z"/>
<path d="M13550 671 c0 -12 25 -21 57 -21 21 0 24 2 13 15 -13 16 -70 21 -70
6z"/>
</g>
</svg>
