<?xml version="1.0" standalone="no"?>
<!DOCTYPE svg PUBLIC "-//W3C//DTD SVG 20010904//EN"
 "http://www.w3.org/TR/2001/REC-SVG-20010904/DTD/svg10.dtd">
<svg version="1.0" xmlns="http://www.w3.org/2000/svg"
 width="924.000000pt" height="803.000000pt" viewBox="0 0 924.000000 803.000000"
 preserveAspectRatio="xMidYMid meet">

<g transform="translate(0.000000,803.000000) scale(0.100000,-0.100000)"
fill="#000000" stroke="none">
<path d="M0 4015 l0 -4015 4620 0 4620 0 0 4015 0 4015 -4620 0 -4620 0 0
-4015z m4945 3701 c268 -30 349 -45 551 -97 255 -66 355 -100 614 -207 215
-89 567 -284 723 -401 513 -385 852 -751 1140 -1232 64 -107 195 -371 257
-519 82 -195 169 -476 219 -710 23 -107 23 -109 -46 -157 -65 -46 -83 -48 -83
-10 0 37 -38 218 -69 333 -38 141 -132 402 -190 529 -10 22 -29 65 -42 95 -47
110 -187 361 -279 500 -198 299 -472 610 -701 795 -41 33 -102 83 -136 110
-33 28 -83 66 -109 85 -26 19 -52 40 -58 45 -18 17 -275 176 -341 210 -33 18
-100 53 -149 79 -128 68 -450 196 -596 237 -41 12 -102 29 -135 39 -177 53
-377 94 -512 105 -43 4 -89 9 -103 11 -14 3 -172 8 -351 11 -433 8 -734 -14
-999 -73 -159 -36 -474 -128 -578 -169 -171 -67 -287 -115 -312 -129 -14 -7
-86 -45 -160 -83 -165 -85 -366 -210 -530 -329 -229 -167 -626 -562 -746 -743
-24 -36 -57 -84 -73 -106 -135 -185 -299 -483 -404 -735 -82 -198 -101 -253
-149 -430 -110 -409 -144 -682 -134 -1075 6 -286 16 -392 52 -572 15 -70 30
-155 34 -188 10 -79 20 -115 39 -144 8 -14 25 -54 37 -90 25 -76 81 -208 112
-266 12 -22 22 -43 22 -48 0 -4 23 -56 51 -115 110 -231 100 -214 319 -602
136 -241 144 -254 153 -265 35 -43 96 -136 99 -151 3 -17 -6 -20 -62 -24 -43
-4 -67 -2 -72 5 -4 6 -27 38 -52 71 -245 320 -471 703 -570 964 -20 52 -44
111 -52 130 -30 67 -113 316 -143 430 -89 336 -121 561 -128 896 -6 264 3 413
37 617 73 441 185 786 391 1208 97 197 281 484 438 684 162 205 558 585 738
710 246 170 380 253 523 325 58 28 119 60 135 71 17 10 71 33 120 52 50 19
110 44 135 55 64 29 171 66 323 111 280 83 521 131 782 155 94 9 186 18 205
20 87 10 683 -3 815 -18z m343 -394 c2 -8 -9 -12 -32 -12 -40 0 -55 14 -29 28
19 11 55 1 61 -16z m-778 -100 c0 -33 -1 -33 -32 -27 -18 4 -35 9 -37 11 -2 2
9 20 24 40 31 41 45 33 45 -24z m80 23 c0 -13 -29 -29 -37 -21 -3 2 0 14 7 25
11 22 30 20 30 -4z m1442 -50 c-5 -19 -72 -12 -72 7 0 5 17 8 38 6 20 -2 36
-7 34 -13z m-1817 -304 c-14 -12 -85 -22 -85 -11 0 5 19 11 43 13 23 2 44 4
47 5 2 1 0 -2 -5 -7z m225 -51 c3 -4 28 -15 55 -23 28 -8 67 -25 88 -38 110
-70 102 -60 102 -119 0 -44 3 -55 18 -58 10 -2 17 3 17 11 0 17 47 50 60 42 5
-3 12 0 15 6 9 14 -69 94 -107 110 -15 6 -28 15 -28 20 0 20 21 16 61 -11 24
-16 55 -30 68 -30 34 0 236 -207 295 -303 46 -76 135 -268 156 -337 12 -41 29
-95 37 -119 7 -25 28 -124 44 -220 26 -149 32 -211 36 -404 5 -202 7 -226 21
-215 13 11 15 7 10 -32 -3 -25 -15 -66 -27 -92 -34 -74 -29 -173 12 -268 28
-64 37 -75 60 -78 21 -3 27 -9 27 -28 0 -13 8 -52 17 -85 14 -52 15 -62 2 -69
-8 -6 -18 -5 -23 0 -6 6 -16 -10 -28 -42 -22 -63 -22 -68 -3 -68 8 0 15 4 15
9 0 5 12 23 26 40 21 25 33 31 65 31 51 0 82 -29 73 -68 -4 -15 -11 -31 -15
-36 -14 -16 -11 -68 4 -63 7 2 11 17 9 35 -2 26 2 32 17 32 24 0 34 -26 20
-52 -15 -28 -6 -111 15 -143 15 -23 20 -24 34 -13 13 11 15 11 9 -4 -3 -10 -4
-18 -1 -18 15 0 21 47 8 67 -8 12 -14 38 -14 56 0 19 -7 40 -15 47 -11 9 -12
17 -4 31 12 23 52 25 74 2 14 -14 18 -14 25 -2 8 12 14 12 42 0 18 -7 96 -24
173 -37 253 -42 315 -61 395 -120 34 -25 83 -51 109 -58 26 -7 75 -34 111 -62
36 -27 93 -67 127 -88 48 -31 65 -48 74 -75 27 -83 108 -238 139 -266 35 -33
100 -156 100 -191 0 -16 -8 -24 -27 -29 -53 -12 -113 -47 -113 -63 1 -39 16
-46 53 -23 72 44 115 21 147 -76 13 -38 34 -93 48 -123 29 -61 38 -139 27
-225 l-6 -55 -50 0 c-47 0 -116 30 -134 60 -12 20 -26 10 -23 -17 2 -18 10
-29 25 -33 20 -5 21 -7 8 -38 -16 -36 -41 -49 -117 -57 -29 -4 -63 -13 -75
-21 -12 -8 -24 -14 -26 -14 -2 0 -3 179 -3 398 l1 397 -28 54 c-16 29 -37 55
-47 58 -19 5 -35 47 -25 63 4 6 -5 14 -19 20 -14 5 -26 15 -26 21 0 7 -3 9 -6
6 -4 -4 -1 -13 6 -22 8 -10 9 -15 1 -15 -6 0 -11 -9 -11 -19 0 -10 -7 -22 -16
-25 -8 -3 -13 -10 -10 -14 7 -12 32 -188 48 -337 14 -139 14 -518 1 -715 -5
-63 -5 -150 -1 -194 4 -44 6 -81 5 -83 -2 -2 -19 2 -37 9 -31 10 -35 9 -61
-20 -31 -35 -32 -34 -44 46 -6 40 4 57 20 32 10 -16 41 -11 59 9 10 11 15 25
10 32 -5 9 -2 10 10 6 16 -6 17 -3 10 35 -4 24 -6 72 -4 108 6 120 4 165 -12
230 -9 36 -22 88 -28 115 -39 177 -71 290 -86 306 -17 19 -18 36 -1 42 8 4 9
8 1 14 -6 4 -19 25 -29 46 -14 31 -16 43 -6 64 6 14 9 35 6 47 -4 11 9 -9 29
-46 19 -37 39 -91 45 -120 10 -54 27 -108 35 -108 13 0 -9 133 -29 180 -13 30
-38 89 -56 130 -17 41 -46 98 -65 125 -18 28 -39 73 -45 100 -7 28 -22 73 -34
100 -12 28 -28 71 -36 98 -7 26 -17 47 -21 47 -4 0 -8 9 -8 19 0 11 -5 23 -10
26 -6 4 -8 10 -5 15 2 4 -5 20 -16 34 -11 15 -22 32 -23 39 -1 6 -6 19 -11 27
-5 8 -9 24 -10 35 0 16 -7 20 -40 20 -22 1 -48 -3 -58 -8 -13 -6 -24 -4 -35 6
-9 8 -32 18 -49 22 -24 5 -37 16 -49 41 -9 19 -20 34 -24 34 -5 0 -17 3 -27 7
-17 7 -17 6 -1 -19 9 -14 14 -35 11 -47 -3 -13 -1 -21 7 -21 7 0 10 -7 5 -17
-5 -15 -4 -16 6 -5 20 19 46 14 52 -9 5 -18 11 -21 36 -16 38 8 40 -5 5 -28
-16 -11 -36 -15 -52 -11 -25 6 -26 5 -9 -8 11 -8 14 -17 8 -20 -11 -7 -4 -36
9 -36 5 0 15 6 22 13 7 6 32 22 54 34 l41 23 27 -21 c15 -12 32 -41 40 -69 8
-27 31 -83 50 -124 38 -79 86 -232 86 -272 0 -26 38 -169 51 -193 5 -9 22 -59
38 -111 16 -52 41 -129 55 -170 52 -160 106 -361 106 -398 0 -21 5 -65 11 -98
20 -108 14 -131 -26 -94 -33 31 -32 18 5 -41 16 -27 26 -50 22 -52 -17 -10
-82 6 -82 19 0 8 -8 17 -17 21 -10 3 -35 21 -56 40 -20 18 -42 33 -47 33 -18
0 -12 58 7 62 13 2 17 16 17 75 1 52 -3 73 -11 73 -7 0 -13 10 -12 23 0 12 3
16 6 10 2 -7 9 -13 15 -13 7 0 5 7 -3 18 -8 9 -20 28 -27 42 -16 34 -41 201
-35 233 3 15 1 33 -5 40 -5 6 -13 30 -16 52 -7 39 -70 225 -100 297 -9 20 -22
41 -30 45 -8 4 -19 19 -25 33 -10 25 -10 25 -10 2 -1 -20 -4 -21 -22 -12 -11
7 -28 9 -37 5 -13 -5 -9 -10 17 -18 37 -13 53 -50 26 -61 -8 -3 -15 -10 -15
-15 0 -6 6 -8 14 -5 8 3 17 0 21 -5 3 -6 11 -9 16 -6 5 3 6 0 3 -8 -3 -8 -1
-18 5 -22 11 -6 16 -45 6 -45 -4 0 -19 7 -35 15 -38 20 -38 11 0 -32 22 -25
30 -43 29 -71 l-1 -37 -9 33 c-6 18 -16 35 -24 39 -8 3 -15 13 -15 23 0 11 -5
22 -12 26 -8 5 -9 2 -5 -10 4 -10 7 -27 7 -37 0 -12 4 -17 11 -13 7 4 9 0 5
-14 -6 -17 8 -36 69 -95 73 -73 96 -117 59 -117 -13 0 -15 -6 -10 -27 6 -25 4
-23 -20 12 -35 52 -115 135 -130 135 -7 0 -14 7 -18 15 -3 8 -10 15 -16 15
-11 0 32 -64 57 -85 14 -12 105 -145 99 -145 -3 0 -20 9 -39 20 -19 11 -42 18
-51 14 -9 -3 -30 -1 -47 6 -53 22 -42 3 18 -29 52 -28 141 -61 166 -61 5 0 7
11 5 24 -3 16 -1 23 7 19 14 -5 41 -253 28 -253 -8 0 -37 69 -40 95 -2 16 -13
40 -26 52 -25 26 -127 67 -127 52 0 -5 7 -12 16 -16 8 -3 13 -12 10 -19 -3 -8
-1 -14 4 -14 6 0 10 -11 10 -24 0 -28 60 -82 71 -64 11 17 15 -3 18 -90 3 -81
3 -84 -17 -73 -15 8 -23 7 -32 -4 -18 -21 23 -128 55 -145 15 -8 25 -25 29
-49 14 -81 66 -154 66 -92 0 14 6 17 25 13 22 -4 25 -1 25 22 0 15 -7 50 -16
77 -19 58 -13 73 12 32 10 -15 22 -31 27 -34 4 -3 5 -12 2 -21 -3 -8 -1 -26 4
-41 7 -18 7 -28 -1 -33 -6 -4 -8 -25 -4 -57 7 -50 7 -51 -36 -89 -24 -21 -48
-38 -55 -38 -16 0 -22 -22 -10 -41 8 -12 4 -26 -13 -55 -13 -22 -29 -42 -34
-46 -8 -5 -7 -14 2 -28 15 -25 16 -84 0 -113 -6 -12 -29 -39 -52 -59 l-40 -38
-18 52 c-26 76 -17 105 52 177 66 69 79 95 57 119 -8 9 -17 24 -20 32 -3 10
-6 6 -6 -9 -1 -20 -5 -22 -26 -17 -16 4 -25 2 -25 -6 0 -9 -3 -9 -12 0 -9 9
-9 18 0 37 7 14 12 35 12 45 0 13 16 26 50 42 49 22 50 24 44 58 -9 46 -12 50
-34 50 -22 0 -36 -18 -32 -43 2 -11 -6 -21 -23 -27 -15 -6 -23 -15 -19 -21 4
-7 -4 -10 -24 -8 -26 3 -35 -2 -54 -31 -16 -23 -33 -36 -51 -38 -21 -3 -31
-12 -42 -40 -22 -50 -14 -62 32 -55 60 10 106 32 99 48 -3 8 -1 17 4 20 6 4
10 -7 10 -24 0 -24 -5 -31 -19 -31 -10 0 -29 -8 -42 -18 -13 -10 -39 -25 -58
-32 -19 -8 -47 -26 -63 -42 -36 -35 -72 -36 -94 -2 -15 22 -19 23 -26 10 -10
-18 -38 -22 -38 -5 0 6 -9 24 -20 40 -19 25 -26 28 -68 25 -28 -2 -50 1 -54 8
-5 8 -11 7 -20 -2 -17 -17 -39 -15 -32 3 4 8 2 15 -2 16 -18 1 -60 8 -104 17
-40 7 -34 8 43 8 54 0 92 5 99 12 9 9 -2 12 -50 12 -50 0 -60 3 -56 15 4 9 -3
19 -19 26 -22 10 -30 8 -61 -16 -20 -15 -33 -31 -30 -36 3 -5 -27 -9 -65 -9
-56 0 -71 -3 -71 -15 0 -8 -3 -16 -7 -16 -28 -5 -239 -6 -246 -2 -4 3 0 11 10
19 17 12 17 13 1 14 -10 0 -18 -5 -18 -11 0 -6 -7 -9 -15 -5 -8 3 -15 1 -15
-4 0 -6 5 -10 11 -10 5 0 7 -4 4 -10 -3 -5 -17 -10 -31 -10 -14 0 -22 4 -19
10 10 16 -44 12 -92 -6 -51 -20 -65 -49 -33 -71 46 -32 10 -82 -79 -108 -23
-7 -23 -6 -17 30 9 46 -8 73 -33 52 -16 -14 -45 -24 -166 -56 -46 -12 -69 -23
-68 -32 0 -8 4 -29 8 -46 5 -21 4 -33 -3 -33 -6 0 -13 18 -17 40 -4 23 -12 40
-20 40 -21 0 -27 31 -10 56 21 32 50 49 115 69 107 32 186 67 248 111 34 25
62 48 62 52 1 17 56 44 141 68 l92 27 116 -17 c147 -21 211 -22 393 -8 102 7
158 8 184 0 20 -5 50 -7 66 -4 15 3 28 1 28 -4 0 -5 12 -13 26 -16 21 -5 33 0
63 30 21 21 49 60 61 87 16 33 29 49 42 49 15 0 18 5 12 23 -3 12 -15 30 -25
40 -23 21 -24 18 -4 -19 19 -36 11 -43 -15 -13 -18 22 -21 22 -30 7 -15 -24
-67 -21 -74 5 -4 17 -7 18 -19 6 -7 -8 -16 -21 -18 -28 -8 -22 -47 48 -63 109
-11 43 -11 52 0 57 8 3 12 14 8 27 -2 11 2 30 9 41 10 13 12 26 6 42 -5 13 -6
30 -3 38 8 21 58 19 78 -4 14 -16 22 -17 46 -8 26 10 32 8 55 -17 27 -29 73
-34 66 -6 -2 8 -7 29 -10 45 -6 26 -15 33 -69 51 -59 21 -85 17 -42 -6 11 -6
20 -17 20 -25 0 -21 -13 -19 -28 5 -8 14 -23 20 -48 20 -32 0 -36 3 -31 20 3
13 1 20 -6 18 -16 -3 -147 42 -174 60 -15 9 -22 23 -20 40 1 15 -4 27 -13 30
-33 11 -96 92 -132 168 -21 45 -38 89 -38 98 0 9 -7 16 -15 16 -8 0 -15 -6
-15 -14 0 -7 7 -19 15 -26 8 -7 15 -22 15 -33 0 -19 -1 -20 -20 -2 -27 25 -78
27 -85 5 -3 -10 -5 -43 -4 -73 2 -59 -9 -83 -46 -97 -21 -8 -65 7 -65 22 0 5
-13 14 -29 19 -21 8 -31 20 -40 52 -7 23 -28 83 -47 134 -37 101 -43 171 -20
226 14 34 69 87 90 87 7 0 38 16 70 35 32 19 65 35 72 35 8 0 14 8 14 18 0 10
16 33 35 52 34 33 36 34 63 18 16 -9 38 -14 54 -11 43 8 61 -2 48 -27 -19 -35
-1 -22 26 20 16 24 33 39 41 36 7 -3 13 -1 13 5 0 5 6 9 13 8 29 -4 38 2 35
23 -5 34 -33 33 -75 -2 l-38 -31 -3 41 c-2 22 -6 40 -10 40 -4 0 -36 5 -72 11
-36 6 -86 10 -112 10 -36 -2 -52 3 -69 20 -26 26 -24 47 16 279 24 138 26 170
21 300 -10 230 -17 275 -39 267 -20 -6 -22 -48 -16 -267 3 -118 1 -246 -4
-284 -4 -38 -10 -96 -11 -130 -2 -33 -6 -91 -11 -128 l-8 -68 38 -35 c42 -41
50 -83 22 -126 -16 -25 -21 -26 -95 -24 -86 2 -126 17 -119 45 2 10 -4 25 -14
34 -11 9 -19 12 -19 8 0 -4 -5 1 -11 11 -8 14 -7 23 5 36 9 10 16 27 16 39 0
11 5 24 10 27 15 10 12 28 -4 22 -8 -3 -20 1 -26 9 -7 8 -9 14 -5 14 4 0 2 7
-5 15 -10 12 -16 13 -26 4 -9 -7 -14 -8 -14 -1 0 5 6 12 14 15 8 3 19 29 25
57 8 37 20 59 41 77 17 13 30 31 30 39 0 8 4 14 9 14 13 0 21 41 11 59 -6 12
-12 8 -30 -22 -12 -20 -29 -37 -37 -37 -12 0 -12 3 1 22 9 12 16 30 16 40 0
12 5 15 17 11 13 -5 15 -2 10 11 -5 13 -3 17 7 13 10 -4 13 -1 9 9 -3 7 -9 14
-14 14 -5 0 -9 9 -9 20 0 15 -7 20 -25 20 -14 0 -29 8 -35 20 -17 32 -30 23
-30 -20 0 -33 -7 -47 -40 -80 -42 -42 -78 -54 -65 -22 4 9 8 31 10 47 2 17 8
42 14 57 14 36 78 98 101 98 17 0 38 35 27 46 -2 3 -18 6 -34 7 -30 2 -31 4
-36 64 -3 34 -2 76 4 95 54 181 77 299 100 513 11 103 11 145 0 195 -4 19 -9
84 -10 143 -1 60 -7 134 -12 165 -6 32 -13 73 -16 92 -3 19 -17 49 -30 66 -12
17 -23 37 -23 44 0 18 57 -40 69 -70 8 -21 10 -22 10 -5 1 11 -6 33 -14 49 -9
16 -14 41 -13 55 3 23 -1 26 -27 26 -24 0 -30 5 -35 30 -8 37 -65 152 -88 179
-11 11 -17 34 -16 62 1 25 -4 45 -11 48 -7 2 -22 25 -35 50 -15 32 -35 54 -64
71 -56 33 -59 32 -36 -10 20 -36 18 -60 -6 -69 -31 -12 21 -89 77 -113 22 -10
32 -29 61 -120 29 -87 34 -117 29 -157 -3 -28 -12 -51 -19 -54 -11 -3 -12 0
-2 18 11 21 11 22 -15 17 -32 -6 -75 29 -75 62 0 34 -49 115 -110 182 -33 35
-66 71 -74 81 -11 13 -27 15 -78 11 -34 -2 -69 -6 -75 -8 -28 -9 -10 -41 42
-75 30 -19 55 -38 55 -42 0 -4 17 -10 38 -14 52 -8 78 -33 111 -106 26 -56 27
-64 13 -72 -29 -16 -96 -25 -109 -14 -14 11 -17 -6 -13 -64 2 -35 -14 -43 -48
-23 -38 23 -66 94 -58 146 5 34 4 39 -13 39 -11 0 -26 9 -34 20 -9 13 -28 20
-61 23 -26 2 -55 11 -63 20 -14 14 -13 18 11 42 31 31 32 35 7 28 -11 -3 -21
-13 -24 -24 -4 -13 -14 -19 -35 -19 -16 0 -35 -6 -42 -14 -6 -8 -21 -16 -33
-18 -12 -2 -22 -7 -23 -13 -2 -25 -24 -62 -53 -87 -17 -15 -43 -46 -58 -69
-28 -43 -63 -64 -110 -68 -16 -1 -16 -2 0 -13 15 -11 15 -18 5 -52 -8 -25 -23
-45 -40 -55 -15 -9 -28 -20 -28 -24 0 -13 -34 -44 -56 -51 -25 -8 -134 -109
-134 -124 0 -6 5 -12 10 -14 6 -2 0 -19 -13 -38 -13 -19 -27 -48 -31 -65 -4
-16 -16 -48 -27 -72 -10 -23 -19 -47 -19 -52 0 -6 -9 -11 -20 -11 -11 0 -20
-4 -20 -10 0 -5 -16 -30 -35 -55 -19 -25 -54 -84 -77 -132 -40 -80 -79 -134
-103 -144 -19 -7 -70 -92 -94 -154 -12 -33 -30 -78 -38 -100 -9 -22 -35 -80
-58 -130 -48 -101 -91 -232 -81 -243 15 -15 127 136 181 243 25 51 31 71 22
77 -20 13 -26 9 -46 -29 -10 -21 -29 -47 -41 -58 l-23 -20 22 42 c11 23 33 56
49 72 74 79 128 146 135 167 5 13 13 24 17 24 9 0 117 89 202 167 63 57 76 54
33 -7 -32 -46 -34 -52 -20 -66 8 -9 15 -22 15 -30 0 -8 11 -19 24 -24 36 -13
55 -84 30 -111 -27 -30 -8 -34 21 -5 30 31 36 32 29 9 -5 -15 -4 -15 4 -3 6 8
9 17 6 21 -2 4 5 14 17 23 25 17 57 66 59 92 6 52 0 74 -20 74 -30 0 -41 30
-25 68 8 17 18 32 22 32 5 0 33 -13 63 -28 73 -38 80 -60 46 -132 -14 -29 -26
-62 -26 -72 0 -11 -5 -15 -15 -12 -9 4 -22 -6 -35 -28 -30 -49 -25 -69 8 -30
16 19 36 32 49 32 15 0 31 12 47 38 18 29 42 46 110 77 47 22 86 44 86 48 0 5
-9 11 -20 14 -12 3 -19 8 -17 12 2 3 10 21 17 39 16 36 22 39 40 17 36 -44 80
3 80 85 0 30 4 70 9 87 5 18 6 35 1 38 -4 2 -10 -9 -14 -27 -3 -17 -9 -29 -12
-25 -3 3 -1 31 6 61 9 43 16 56 30 56 10 0 20 7 24 15 3 9 12 12 22 8 10 -4
25 4 42 22 17 19 22 30 14 33 -7 2 -19 10 -26 18 -19 18 -26 18 -26 -1 0 -8
-4 -15 -10 -15 -5 0 -7 -6 -4 -14 3 -8 -3 -16 -15 -19 -32 -8 -26 7 29 69 51
58 53 63 51 99 -1 12 2 32 7 45 7 19 17 24 50 26 23 1 42 1 42 -1 0 -17 -16
-35 -31 -35 -33 0 -20 -26 21 -43 22 -8 43 -22 46 -31 9 -25 -57 -140 -83
-144 -35 -5 -29 -32 7 -32 17 0 30 3 30 8 0 4 10 12 23 17 12 6 26 20 32 33
11 24 25 30 25 10 0 -26 -23 -93 -27 -80 -7 19 -19 14 -32 -14 -12 -28 -7 -44
14 -44 8 0 19 -8 24 -17 9 -16 10 -16 11 3 0 26 25 50 35 34 4 -6 4 -17 1 -25
-3 -9 0 -12 8 -9 16 6 33 41 42 89 3 20 15 42 25 48 11 7 19 22 19 35 0 19 -3
21 -19 12 -36 -19 -60 -12 -66 18 -4 15 -10 45 -16 67 -15 66 -16 232 -1 193
7 -16 9 -16 32 5 14 13 40 40 58 61 l33 37 19 -23 c10 -13 22 -36 26 -53 3
-16 12 -43 20 -60 39 -89 74 -189 80 -233 6 -49 5 -51 -24 -66 -17 -9 -33 -24
-36 -34 -4 -10 -18 -30 -32 -43 -23 -21 -27 -22 -37 -8 -7 8 -20 18 -30 22
-14 5 -21 -1 -33 -31 -8 -20 -26 -59 -41 -87 -14 -27 -39 -76 -55 -107 -37
-73 -92 -120 -165 -143 -32 -9 -85 -28 -118 -40 -33 -13 -68 -26 -78 -29 -9
-3 -49 -27 -88 -53 -40 -27 -79 -52 -88 -58 -9 -5 -31 -22 -49 -38 -18 -15
-38 -25 -43 -21 -5 3 -37 -22 -69 -56 -59 -61 -73 -85 -47 -74 8 3 19 -1 25
-9 14 -17 -5 -81 -38 -127 -11 -15 -20 -32 -20 -38 0 -5 -7 -15 -15 -22 -12
-10 -15 -10 -15 1 0 8 -14 -2 -30 -21 -16 -19 -38 -44 -48 -55 -22 -24 -35
-55 -22 -55 5 0 20 14 34 32 26 33 42 34 32 1 -6 -20 -71 -93 -83 -93 -4 0 -2
5 5 12 15 15 16 38 1 38 -11 0 -49 -37 -49 -48 0 -2 8 -1 18 2 9 3 4 -4 -13
-16 -41 -31 -84 -76 -100 -108 -7 -14 -29 -43 -49 -65 -33 -36 -50 -75 -26
-60 5 3 7 0 4 -7 -19 -41 -324 -268 -360 -268 -8 0 -14 7 -14 15 0 8 6 15 13
15 21 0 127 73 127 88 0 6 7 12 14 12 16 0 72 67 64 75 -3 3 -15 -4 -28 -15
-13 -11 -28 -20 -34 -20 -6 0 -1 8 12 18 13 10 29 29 35 42 7 14 21 26 32 28
19 3 19 2 3 -11 -22 -18 -23 -27 -3 -27 20 0 59 43 87 95 11 22 31 54 44 71
27 35 30 46 11 38 -8 -3 -25 -24 -38 -47 -22 -38 -24 -40 -27 -18 -2 15 3 28
12 33 9 5 16 15 16 22 0 7 10 26 22 42 17 20 18 26 6 22 -8 -4 -21 -1 -28 5
-10 9 -11 7 -5 -11 5 -19 -4 -38 -49 -95 -63 -82 -100 -121 -147 -157 -18 -14
-54 -44 -79 -67 -26 -24 -50 -43 -54 -43 -11 0 -6 27 8 39 8 7 20 35 27 64 13
55 45 107 65 107 7 0 10 8 7 20 -3 11 -1 20 5 20 5 0 12 10 16 23 4 16 8 19
15 9 6 -11 10 -10 15 3 3 9 6 28 6 41 0 21 4 24 20 19 14 -5 20 -2 20 9 0 21
-11 20 -49 -1 -17 -10 -35 -31 -41 -47 -11 -33 -42 -65 -87 -93 -45 -27 -75
-68 -85 -117 -4 -22 -10 -46 -11 -52 -4 -15 -77 -78 -83 -71 -8 7 15 47 26 47
13 0 13 37 0 45 -6 3 -13 -1 -16 -9 -3 -9 -10 -14 -15 -11 -8 6 -78 -51 -110
-90 -9 -10 -15 -25 -12 -31 5 -14 -35 -44 -59 -44 -10 0 -18 6 -18 14 0 7 -9
20 -20 27 -27 19 -90 128 -90 155 0 12 -5 24 -11 26 -27 9 -31 277 -6 385 20
83 20 90 8 78 -15 -17 -31 -85 -46 -199 -14 -110 -27 -144 -45 -116 -13 20
-13 124 0 189 5 28 28 90 51 138 23 47 42 96 43 107 2 12 13 40 24 63 12 23
22 51 22 61 0 41 32 112 50 112 20 0 33 36 21 58 -5 9 -1 33 9 61 10 25 30 85
44 132 15 50 37 98 51 113 31 34 32 54 3 58 -16 2 -22 9 -20 23 15 120 16 118
-18 153 -18 17 -36 32 -41 32 -5 0 -6 25 -3 55 6 52 5 55 -15 55 -26 0 -26 6
-1 62 23 52 23 54 14 315 -7 195 -6 202 15 236 28 45 89 101 141 127 49 25
201 70 212 63 5 -2 31 12 58 32 52 38 68 35 26 -4 -14 -13 -30 -37 -37 -54 -7
-18 -15 -34 -18 -37 -18 -16 -41 -73 -41 -100 0 -17 -9 -68 -21 -113 -17 -70
-27 -89 -65 -127 -43 -45 -53 -75 -38 -114 9 -24 34 -19 34 7 0 33 9 42 80 77
50 25 80 33 132 35 46 1 72 7 83 19 19 19 29 21 19 4 -5 -8 7 -9 46 -5 49 6
56 4 87 -23 25 -23 44 -30 73 -30 42 0 76 -14 97 -40 9 -11 12 -12 13 -2 0 24
20 1 20 -24 0 -24 14 -32 25 -14 10 16 23 11 27 -10 2 -12 5 -20 8 -18 3 1 16
-5 30 -15 13 -9 30 -17 37 -17 20 0 15 35 -6 54 -25 23 -36 72 -21 91 7 8 16
12 21 10 4 -3 23 8 41 24 29 25 31 31 18 46 -11 14 -12 20 -1 37 15 24 2 38
-36 38 -13 0 -23 6 -24 13 0 10 -2 10 -6 0 -2 -7 -11 -13 -18 -13 -7 0 -15 -7
-19 -15 -3 -8 -10 -15 -15 -15 -6 0 -8 7 -4 17 5 14 1 15 -32 10 -21 -4 -43
-13 -47 -21 -5 -8 -25 -18 -46 -21 -53 -9 -90 -25 -96 -41 -7 -18 -40 -18 -56
1 -10 12 -10 18 -1 29 10 12 8 20 -10 39 -12 14 -28 23 -35 20 -11 -4 -12 2
-8 26 l7 32 -35 -18 c-33 -17 -84 -76 -100 -115 -4 -10 -14 -18 -23 -18 -19 0
-19 1 0 36 14 27 14 30 -6 38 -17 8 -20 16 -16 47 5 41 -5 65 -22 54 -8 -4 -9
-11 -2 -18 5 -7 7 -24 4 -38 -5 -25 -7 -26 -34 -16 -16 6 -29 15 -29 20 0 19
58 133 82 162 14 17 32 44 41 60 8 17 24 39 36 49 29 26 26 38 -6 25 l-28 -10
24 25 c27 29 76 43 95 27 10 -8 22 -8 41 -1 38 15 47 4 28 -35 -9 -19 -14 -37
-12 -40 7 -7 108 33 138 54 30 21 93 52 113 55 7 1 18 5 25 9 6 4 13 1 16 -5
3 -10 7 -10 20 0 9 8 20 11 26 8 5 -3 32 -1 60 5 41 9 53 8 65 -4 8 -8 44 -17
81 -20 69 -7 139 -39 132 -61 -2 -6 -19 -21 -37 -34 -37 -24 -65 -60 -56 -69
3 -3 31 20 63 51 31 31 67 59 78 62 12 3 49 -4 84 -16 34 -12 64 -20 67 -17 7
6 -93 77 -109 77 -7 0 -30 18 -52 40 -68 70 -179 84 -401 51 -42 -6 -56 -4
-73 10 l-21 17 38 39 c43 44 85 73 116 79 11 2 45 9 74 16 46 11 57 10 85 -5
23 -13 50 -17 90 -15 39 3 62 -1 69 -9 6 -7 16 -13 23 -13 7 0 28 -14 46 -31
22 -20 27 -29 15 -25 -20 7 -20 7 0 -15 13 -16 15 -23 7 -26 -37 -13 14 -48
65 -46 6 0 12 -7 12 -17 0 -56 129 -82 175 -35 42 41 31 62 -55 104 -25 12
-54 27 -65 34 -44 27 -101 62 -120 74 -11 7 -41 22 -67 34 -27 12 -48 25 -48
29 0 20 -271 65 -288 48 -15 -15 -57 31 -54 59 3 22 1 23 -17 14 -11 -6 -23
-16 -26 -21 -3 -6 -13 -10 -22 -10 -9 0 -22 -8 -29 -17 -7 -10 -14 -13 -14 -7
0 17 31 41 84 64 34 16 50 30 58 51 10 30 38 40 38 15 0 -10 16 -4 52 20 29
19 58 34 65 34 7 0 20 11 28 24 18 28 44 41 57 28 5 -5 -3 -14 -17 -22 -36
-19 -31 -30 15 -30 22 0 40 -4 40 -10 0 -5 -23 -10 -50 -10 -28 0 -58 -4 -68
-9 -9 -6 -43 -21 -75 -36 -32 -14 -55 -30 -52 -35 4 -6 14 -6 27 1 11 6 32 9
46 6 15 -3 38 3 56 14 22 13 32 15 37 7 6 -9 11 -9 22 0 11 10 17 9 26 -2 6
-8 20 -12 30 -9 10 2 45 -3 78 -11 34 -9 73 -16 87 -16 14 0 35 -9 46 -20 10
-10 22 -15 25 -10 6 9 80 -14 99 -32 6 -4 19 -8 30 -8 20 0 56 -27 56 -42 0
-4 -9 -8 -20 -8 -11 0 -20 4 -20 10 0 15 -41 33 -52 22 -10 -10 27 -41 89 -74
33 -18 63 -15 63 6 0 6 5 3 11 -7 5 -9 8 -21 4 -26 -3 -5 7 -19 22 -30 16 -11
23 -21 16 -21 -24 0 -1 -30 24 -30 13 0 22 -4 18 -10 -3 -5 -13 -6 -23 -3 -12
4 -14 3 -7 -5 15 -16 78 -19 83 -4 5 17 32 15 32 -3 0 -8 2 -15 4 -15 2 0 11
-3 20 -6 60 -23 -60 137 -139 186 -25 16 -32 26 -28 43 4 19 3 20 -9 6 -12
-14 -15 -14 -33 4 -11 10 -41 29 -66 42 -53 27 -81 56 -61 62 18 7 14 23 -6
23 -10 0 -22 4 -28 10 -5 5 -29 11 -53 12 -30 1 -53 10 -78 30 -45 35 -53 30
-16 -10 39 -41 78 -64 121 -72 29 -5 33 -9 19 -15 -11 -4 -36 1 -67 14 -27 11
-66 21 -87 22 l-38 1 29 12 c25 12 26 14 10 20 -11 4 -45 12 -77 16 -64 10
-87 23 -87 51 0 16 4 17 26 9 40 -16 79 -12 99 9 9 11 34 21 54 23 55 5 175
-3 181 -12z m145 10 c18 -7 18 -8 -8 -15 -30 -8 -43 -2 -32 14 7 13 12 13 40
1z m-945 -256 c0 -12 -106 -108 -120 -109 -22 -2 -82 -57 -72 -67 9 -9 74 21
104 49 16 14 21 15 28 4 6 -11 14 -10 39 8 17 12 31 20 31 17 0 -13 -41 -73
-60 -86 -11 -8 -20 -22 -20 -31 0 -9 -8 -23 -17 -30 -17 -13 -17 -13 -3 5 14
18 13 19 -5 12 -60 -23 -127 -13 -109 16 4 5 -8 2 -26 -7 -17 -9 -35 -13 -38
-9 -4 4 -1 9 6 11 6 3 12 14 12 26 1 33 29 62 88 91 28 15 52 31 52 36 0 6 10
10 23 10 12 0 35 14 50 30 29 30 37 35 37 24z m2200 -71 c0 -86 -13 -97 -55
-49 -19 22 -35 46 -35 55 0 11 3 10 14 -4 13 -19 15 -18 36 18 12 20 26 37 31
37 5 0 9 -26 9 -57z m-2095 37 c17 0 17 -2 5 -10 -8 -5 -23 -10 -33 -10 -11 0
-27 -10 -37 -22 -18 -23 -18 -23 -7 15 10 31 16 37 32 33 11 -3 29 -6 40 -6z
m818 -7 c-7 -2 -19 -2 -25 0 -7 3 -2 5 12 5 14 0 19 -2 13 -5z m-913 -228 c15
-18 15 -17 -29 -35 -18 -7 -42 -23 -52 -34 -34 -36 -20 -1 17 42 39 46 46 49
64 27z m-230 -5 c0 -5 -5 -10 -11 -10 -5 0 -7 5 -4 10 3 6 8 10 11 10 2 0 4
-4 4 -10z m-125 -20 c-3 -5 -11 -10 -16 -10 -6 0 -7 5 -4 10 3 6 11 10 16 10
6 0 7 -4 4 -10z m-1370 -110 c3 -5 0 -10 -9 -10 -8 0 -16 -6 -19 -12 -2 -7 -8
-10 -12 -6 -8 8 12 38 26 38 4 0 11 -4 14 -10z m1345 -35 c0 -2 -11 -15 -25
-29 -28 -28 -33 -22 -9 12 13 19 34 30 34 17z m3811 -195 c38 -21 13 -75 -32
-68 -35 5 -47 33 -25 57 22 24 29 25 57 11z m-1256 -174 c20 -31 11 -69 -21
-87 -21 -11 -28 -10 -52 8 -35 26 -38 43 -12 76 27 34 64 35 85 3z m-2415 -6
c0 -5 -4 -10 -10 -10 -5 0 -10 5 -10 10 0 6 5 10 10 10 6 0 10 -4 10 -10z
m1381 -36 c11 -25 19 -53 17 -62 -3 -11 -9 -5 -18 20 -7 20 -21 39 -30 41 -26
7 -32 43 -8 44 14 1 25 -11 39 -43z m-2876 6 c0 -36 -29 -33 -33 3 -3 23 0 28
15 25 12 -2 18 -12 18 -28z m2656 -9 c16 -16 29 -37 29 -45 0 -16 -37 -36 -66
-36 -26 0 -54 38 -54 75 0 32 2 35 31 35 20 0 40 -10 60 -29z m-366 9 c18 -8
17 -9 -7 -9 -16 -1 -28 4 -28 9 0 12 8 12 35 0z m413 -85 c-6 -14 -13 -23 -16
-21 -6 7 -92 -97 -92 -111 0 -7 -7 -13 -15 -13 -18 0 -20 21 -3 38 15 15 4 15
-25 1 -21 -10 -21 -10 -3 5 11 9 23 16 27 16 4 0 9 9 11 20 2 12 8 21 13 21 6
0 17 6 25 13 8 6 27 18 43 26 15 7 27 17 27 22 0 4 4 8 10 8 6 0 5 -10 -2 -25z
m-312 -24 c-3 -5 -15 -7 -26 -4 -28 7 -25 13 6 13 14 0 23 -4 20 -9z m-78 -43
c-3 -7 -13 -15 -24 -17 -16 -3 -17 -1 -5 13 16 19 34 21 29 4z m-54 -41 c16 3
25 -1 29 -14 4 -10 15 -33 26 -52 11 -18 17 -39 15 -45 -6 -15 -165 -97 -175
-90 -4 2 -11 29 -14 59 -8 63 -1 77 54 104 25 12 35 23 34 36 -1 11 0 15 3 9
2 -6 15 -9 28 -7z m-2044 -31 c10 -13 7 -13 -18 -4 -33 13 -62 -1 -62 -28 0
-8 -4 -14 -10 -14 -14 0 -13 8 8 35 19 28 63 33 82 11z m2310 7 c0 -5 -5 -15
-10 -23 -8 -12 -10 -11 -10 8 0 12 5 22 10 22 6 0 10 -3 10 -7z m-2303 -65
c-3 -7 -5 -2 -5 12 0 14 2 19 5 13 2 -7 2 -19 0 -25z m-27 -18 c0 -5 -6 -10
-14 -10 -8 0 -18 5 -21 10 -3 6 3 10 14 10 12 0 21 -4 21 -10z m2800 -66 c0
-8 -4 -14 -10 -14 -5 0 -10 9 -10 21 0 11 5 17 10 14 6 -3 10 -13 10 -21z
m2645 -59 c0 -31 -49 -28 -53 3 -3 20 0 23 25 20 20 -2 28 -8 28 -23z m-2059
-10 c13 -20 14 -28 4 -40 -18 -22 -39 -18 -52 10 -8 19 -8 28 2 40 17 21 27
19 46 -10z m-542 -108 c9 -80 7 -121 -7 -142 -7 -11 -14 -36 -15 -54 -2 -19
-11 -64 -21 -100 -11 -37 -27 -98 -36 -137 -17 -75 -47 -147 -93 -218 -14 -22
-33 -53 -42 -68 -8 -15 -31 -45 -50 -65 -19 -21 -47 -54 -61 -73 -15 -19 -54
-64 -87 -99 -34 -36 -58 -69 -55 -74 4 -6 0 -8 -9 -5 -17 7 -93 -59 -103 -91
-3 -11 -11 -21 -17 -21 -25 0 -127 -104 -210 -214 -86 -114 -133 -172 -168
-208 -35 -37 -170 -184 -237 -258 -60 -68 -95 -105 -186 -197 -55 -56 -77 -73
-99 -73 -15 0 -28 5 -28 11 0 6 -28 -14 -62 -45 -34 -31 -66 -56 -72 -56 -7 0
-19 9 -29 20 -16 19 -16 20 11 20 22 0 54 28 167 143 77 78 171 176 209 217
38 41 130 137 203 213 104 108 133 143 128 158 -5 14 14 39 80 104 48 47 89
85 93 85 6 0 29 21 64 58 12 12 25 22 30 22 4 0 29 22 55 48 27 27 67 61 91
77 23 15 42 30 42 32 0 2 -4 1 -10 -2 -24 -15 -7 15 18 30 15 10 63 54 106 99
63 65 79 87 79 111 0 17 2 24 4 18 5 -14 63 38 63 55 0 5 7 15 15 22 23 19 46
69 70 155 13 44 42 132 65 195 23 63 44 135 46 160 2 25 12 67 21 93 16 45 16
51 1 77 -18 32 -15 40 11 33 14 -3 20 -18 25 -56z m-1327 -197 c22 0 24 -2 13
-15 -7 -9 -21 -13 -30 -10 -9 3 -23 -1 -30 -10 -24 -29 -29 -15 -8 22 12 20
24 31 26 25 2 -7 15 -12 29 -12z m5310 -217 c2 -49 -3 -78 -16 -103 -10 -19
-24 -66 -30 -104 -7 -38 -20 -81 -30 -95 -10 -14 -22 -37 -26 -51 -10 -34 -74
-148 -87 -156 -7 -5 -8 -2 -3 7 7 12 6 12 -9 0 -18 -15 -56 -83 -56 -101 0 -6
-11 -23 -25 -38 -14 -15 -42 -52 -62 -82 -20 -30 -51 -70 -68 -90 -17 -19 -46
-60 -65 -90 -83 -135 -113 -180 -123 -180 -10 0 -8 11 21 88 20 51 17 67 -8
37 -7 -8 -16 -12 -21 -9 -5 3 -6 -2 -3 -10 6 -17 -23 -78 -77 -156 -21 -32
-39 -61 -39 -66 -1 -14 -48 -64 -60 -64 -5 0 -10 9 -10 21 0 15 -5 20 -22 17
-29 -4 -36 -28 -8 -28 19 0 21 -2 10 -15 -7 -9 -19 -14 -26 -11 -7 3 -15 0
-17 -7 -7 -19 -62 15 -63 38 -1 47 -18 97 -39 113 -12 9 -26 31 -32 47 -7 24
-16 31 -41 33 l-32 3 30 -49 c17 -27 28 -55 25 -64 -3 -8 -31 -33 -60 -54 -54
-39 -75 -65 -34 -43 19 10 20 8 14 -10 -6 -20 -4 -20 39 6 36 22 45 32 40 48
-3 11 -2 16 3 10 4 -5 14 -10 21 -11 27 -2 31 -5 46 -35 14 -28 14 -33 -4 -62
-11 -18 -20 -39 -20 -47 -1 -28 -38 -62 -60 -55 -15 5 -20 2 -20 -13 0 -22
-24 -35 -51 -27 -22 7 -35 -11 -20 -29 8 -10 5 -16 -16 -25 -17 -8 -29 -9 -36
-2 -13 13 -12 137 1 153 18 24 24 75 9 81 -8 3 -31 39 -52 81 -52 105 -79 125
-65 46 4 -24 18 -50 34 -65 16 -15 26 -35 26 -52 0 -20 -3 -24 -11 -16 -6 6
-17 9 -24 6 -7 -2 -16 5 -20 16 -7 22 -45 49 -45 32 0 -5 4 -12 9 -16 5 -3 13
-20 16 -38 4 -17 21 -49 37 -69 29 -37 29 -39 22 -118 l-7 -80 -71 -59 c-39
-33 -96 -80 -126 -105 -30 -25 -76 -57 -102 -71 -26 -13 -49 -29 -53 -34 -3
-6 8 -77 24 -158 16 -81 35 -203 42 -271 15 -156 6 -408 -21 -557 -11 -60 -25
-137 -29 -170 -12 -74 -17 -536 -8 -627 7 -66 6 -68 -18 -74 -16 -4 -36 1 -57
14 -18 11 -51 24 -73 27 -22 4 -58 15 -80 25 -22 10 -60 21 -85 25 -25 4 -52
13 -60 20 -23 19 -128 53 -190 61 -106 14 -123 27 -150 119 -16 55 -2 87 66
153 42 40 54 58 49 73 -6 18 -13 19 -71 15 -77 -6 -90 7 -75 74 5 22 7 49 4
60 -3 13 0 20 8 20 7 0 25 12 40 26 21 20 43 28 96 35 99 13 133 20 139 30 3
5 -16 9 -43 10 l-48 1 45 10 c85 19 91 17 118 -33 l25 -46 -27 -66 c-14 -36
-26 -85 -26 -109 0 -62 19 -159 36 -185 26 -41 18 -53 -32 -53 -27 0 -43 -4
-39 -10 3 -5 19 -10 34 -10 35 0 57 -24 65 -72 8 -47 23 -57 35 -24 13 32 13
296 1 296 -6 0 -10 -18 -10 -40 0 -42 -14 -54 -25 -20 -8 24 1 147 17 238 12
74 3 105 -45 143 -29 24 -68 36 -134 42 -15 1 -23 9 -23 21 0 13 -4 16 -17 11
-10 -4 -30 -10 -45 -12 -23 -4 -28 -1 -34 21 -3 14 -9 26 -13 26 -9 0 -61 95
-61 111 0 6 7 9 15 5 13 -4 14 -2 5 14 -6 11 -7 20 -3 20 5 0 15 15 22 32 l15
33 12 -46 c14 -55 21 -69 37 -69 9 0 11 14 9 42 -2 29 0 39 6 29 7 -9 13 8 22
60 6 41 13 80 15 87 6 16 44 7 110 -26 76 -39 108 -72 69 -72 -14 0 -14 -3 -4
-15 13 -16 65 -21 74 -7 3 5 -3 15 -12 24 -9 8 -36 39 -58 69 -34 45 -50 56
-90 68 -27 7 -61 18 -76 24 -29 12 -54 57 -45 81 3 8 2 55 -3 106 -11 119 -2
143 40 105 10 -9 43 -20 75 -25 64 -10 82 -22 87 -53 2 -13 11 -23 24 -25 25
-4 39 27 49 106 8 74 12 80 57 93 54 14 60 4 55 -94 -3 -73 -6 -80 -35 -107
-18 -16 -32 -34 -32 -39 0 -16 -53 -89 -69 -96 -11 -4 -10 -1 2 13 18 19 24
47 8 38 -5 -3 -12 1 -15 10 -4 12 -2 15 9 10 20 -7 19 8 -1 29 -27 26 -39 12
-45 -56 -10 -94 11 -109 86 -64 72 44 90 52 125 58 27 5 31 4 17 -4 -13 -8
-15 -14 -7 -29 5 -10 10 -50 10 -89 0 -38 5 -73 10 -76 15 -9 12 -25 -5 -25
-10 0 -15 11 -15 35 0 19 -4 35 -10 35 -5 0 -10 -9 -10 -20 0 -11 -4 -20 -8
-20 -18 0 -63 -213 -62 -288 1 -33 28 17 50 91 29 100 39 122 51 110 6 -6 4
-49 -6 -123 -11 -72 -14 -136 -9 -177 3 -35 8 -62 10 -60 13 13 46 204 59 337
14 147 14 253 -1 526 -4 83 -2 103 10 113 13 11 13 16 1 34 -18 29 -17 94 3
135 17 32 20 34 57 36 27 1 35 74 10 89 -9 5 -25 28 -36 50 -10 23 -24 49 -31
59 -9 13 -7 25 13 63 42 82 108 102 96 30 -3 -19 -2 -35 4 -35 8 0 14 52 10
95 -3 33 7 49 23 36 10 -8 16 -9 21 -1 8 13 62 13 70 0 12 -20 25 1 14 22 -8
15 -13 17 -19 8 -6 -10 -14 -8 -35 8 -31 24 -49 20 -40 -9 7 -21 5 -22 -19
-13 -9 3 -16 12 -16 19 0 7 -7 15 -15 19 -8 3 -15 12 -15 21 0 13 4 14 20 5
28 -15 25 -4 -15 70 -19 36 -35 74 -35 85 0 17 -2 15 -14 -7 -8 -15 -12 -40
-10 -55 4 -20 -1 -32 -18 -45 -20 -15 -21 -20 -10 -37 6 -12 12 -27 12 -35 0
-8 6 -16 14 -19 10 -4 12 -13 8 -29 -11 -36 -39 -71 -51 -63 -6 3 -11 2 -11
-3 0 -5 -13 -12 -29 -15 -16 -3 -36 -13 -44 -22 -9 -8 -18 -15 -21 -15 -12 0
-54 78 -76 140 -13 36 -33 88 -45 115 -58 130 -65 148 -59 171 4 15 2 24 -5
24 -6 0 -11 9 -11 21 0 11 -5 29 -10 40 -13 22 -2 25 26 5 10 -8 30 -12 45 -9
14 3 41 1 60 -4 25 -7 54 -5 109 8 41 10 98 23 125 30 28 6 55 14 60 18 20 12
229 87 280 100 17 4 41 13 54 20 12 7 46 19 74 28 29 8 93 36 142 62 50 26
106 54 125 61 19 8 60 29 90 47 67 40 94 44 60 8 -13 -14 -18 -25 -12 -25 12
0 62 -72 62 -90 0 -5 -7 -10 -15 -10 -18 0 -20 -21 -3 -38 19 -19 26 -15 33
18 4 17 10 30 15 30 17 0 16 76 -2 122 l-18 48 37 18 c21 9 44 23 51 30 7 6
17 12 22 12 5 0 15 6 22 13 7 6 42 32 78 57 158 108 248 194 322 305 22 33 61
83 87 111 25 29 46 52 46 53 0 1 1 -29 2 -66z m-5067 22 c0 -8 -2 -15 -4 -15
-2 0 -6 7 -10 15 -3 8 -1 15 4 15 6 0 10 -7 10 -15z m-1852 -107 c2 -16 -3
-28 -12 -31 -13 -5 -16 1 -16 29 0 41 23 43 28 2z m6939 -95 c-3 -10 -5 -4 -5
12 0 17 2 24 5 18 2 -7 2 -21 0 -30z m-3143 6 c57 -26 53 -125 -5 -149 -59
-25 -119 27 -104 90 16 65 52 84 109 59z m-1159 -36 c-7 -21 -18 -38 -24 -38
-11 0 -61 -67 -61 -81 0 -4 -12 -22 -26 -41 -14 -19 -24 -36 -23 -38 2 -2 15
12 29 31 26 35 40 43 40 22 0 -18 -62 -78 -80 -78 -9 0 -37 -15 -61 -34 -24
-18 -51 -36 -61 -39 -29 -10 -71 58 -43 69 8 4 15 13 15 21 0 8 8 13 18 11 28
-5 52 21 52 55 0 54 21 97 47 97 13 0 58 18 100 40 43 22 80 40 84 40 4 0 1
-17 -6 -37z m-3651 -3 c14 -5 26 -16 26 -23 0 -15 -57 -36 -78 -29 -16 5 -16
49 1 55 19 8 24 8 51 -3z m3612 -96 c-4 -9 -9 -15 -11 -12 -3 3 -3 13 1 22 4
9 9 15 11 12 3 -3 3 -13 -1 -22z m2770 -38 c8 -14 14 -35 12 -48 -2 -19 -10
-24 -41 -26 -45 -4 -67 11 -67 44 0 52 67 73 96 30z m-2746 -140 c0 -2 -8 -10
-17 -17 -16 -13 -17 -12 -4 4 13 16 21 21 21 13z m3121 -25 c21 -17 22 -21 11
-60 -7 -23 -22 -46 -35 -52 -21 -12 -21 -11 -4 8 36 41 9 78 -39 53 -31 -17
-32 -55 -1 -65 20 -6 20 -8 3 -12 -31 -8 -71 29 -74 70 -3 32 1 39 30 57 41
25 79 26 109 1z m-1029 -8 c22 -20 23 -56 2 -74 -30 -24 -71 20 -60 64 7 31
31 35 58 10z m-1582 -13 c0 -5 -5 -10 -11 -10 -5 0 -7 5 -4 10 3 6 8 10 11 10
2 0 4 -4 4 -10z m-1407 -195 c-3 -9 -8 -14 -10 -11 -3 3 -2 9 2 15 9 16 15 13
8 -4z m694 -60 c-3 -37 -1 -63 4 -59 5 3 9 -11 9 -30 0 -29 -4 -36 -20 -36
-12 0 -17 5 -14 14 3 8 -2 44 -11 80 -18 70 -12 96 22 96 12 0 14 -13 10 -65z
m-826 -16 c-29 -28 -56 -47 -59 -44 -8 7 88 95 103 95 5 0 -14 -23 -44 -51z
m-2164 -94 c1 -5 -2 -17 -7 -25 -9 -13 -12 -12 -25 4 -8 10 -12 23 -9 28 7 11
36 6 41 -7z m1923 -45 c-12 -16 -26 -30 -32 -30 -11 0 6 26 31 48 24 19 24 14
1 -18z m551 -70 c-17 -15 -31 -31 -31 -36 0 -12 -160 -167 -167 -161 -8 9 10
32 100 127 48 51 87 97 87 101 0 12 34 16 39 5 2 -5 -10 -22 -28 -36z m617 12
c6 -18 -15 -14 -22 4 -4 10 -1 14 6 12 6 -2 14 -10 16 -16z m33 -52 c5 0 9
-10 9 -22 -1 -22 -1 -23 -15 -4 -8 11 -14 29 -14 40 1 17 2 18 6 4 2 -10 9
-18 14 -18z m-1361 -30 c0 -5 -3 -10 -7 -10 -5 0 -18 -3 -30 -6 -13 -4 -23 -2
-23 4 0 9 9 13 53 21 4 0 7 -3 7 -9z m1330 -9 c0 -27 -15 -34 -30 -16 -14 17
-30 20 -30 5 0 -5 7 -10 16 -10 13 0 14 -3 5 -14 -10 -12 -8 -13 8 -9 16 4 21
1 21 -16 0 -23 14 -28 26 -9 5 7 10 4 16 -11 6 -17 13 -21 28 -16 16 5 20 2
20 -19 0 -16 -6 -26 -14 -26 -7 0 -21 -11 -30 -25 -9 -14 -23 -25 -32 -25 -12
0 -13 -11 -8 -67 8 -78 24 -104 63 -97 23 4 32 -4 74 -62 26 -37 47 -74 47
-82 0 -42 -135 -120 -185 -108 -34 9 -35 46 -1 46 14 0 27 -4 30 -9 8 -12 87
7 108 26 10 9 18 24 18 34 0 21 -35 43 -56 35 -20 -8 -44 4 -44 21 0 8 -5 11
-12 7 -6 -4 -17 1 -24 11 -16 22 -49 12 -41 -13 3 -9 9 -28 13 -41 l7 -25 -35
22 c-19 12 -40 22 -47 22 -14 0 -14 -33 0 -47 14 -14 3 -33 -20 -33 -24 0 -41
20 -41 47 0 18 11 28 53 47 59 26 77 53 77 118 0 39 -21 78 -42 78 -6 0 -21 9
-34 19 -20 16 -30 17 -63 9 -45 -11 -106 -70 -116 -111 -7 -26 -6 -27 29 -25
30 3 36 7 36 25 0 28 39 55 82 57 25 1 32 -3 29 -14 -14 -54 -13 -67 10 -73
22 -6 22 -7 4 -27 -25 -28 -71 -27 -79 3 -5 18 -8 20 -16 7 -5 -8 -10 -26 -10
-39 0 -16 -4 -21 -14 -18 -15 6 -29 -42 -20 -68 10 -26 -5 -65 -25 -65 -39 0
-81 -22 -87 -46 -12 -45 -30 -29 -48 45 -10 37 -17 47 -36 49 -23 4 -49 27
-50 46 0 4 7 6 15 2 9 -3 19 3 25 14 9 16 15 18 30 10 27 -14 27 -15 34 44 8
74 -1 118 -24 111 -31 -10 -32 13 -3 52 15 21 32 40 36 42 5 2 36 26 69 55 73
62 118 92 118 77 0 -6 7 -8 16 -4 8 3 13 11 10 18 -3 9 5 12 27 11 29 -1 32 2
33 29 1 17 2 33 3 38 0 4 19 7 41 7 33 0 40 -3 40 -19z m-1490 -1 c0 -5 -2
-10 -4 -10 -3 0 -8 5 -11 10 -3 6 -1 10 4 10 6 0 11 -4 11 -10z m289 -65 c-41
-43 -249 -198 -282 -210 -8 -4 -19 -17 -25 -30 -11 -23 -14 -24 -109 -20 -98
4 -118 7 -160 28 -30 14 -29 23 5 35 21 7 35 6 57 -5 51 -27 161 3 265 71 103
68 180 116 185 116 4 0 21 11 39 25 18 14 38 25 44 25 7 0 12 5 12 12 0 6 3 8
7 5 3 -4 -14 -27 -38 -52z m5141 -65 c9 -29 11 -72 7 -157 -16 -287 -110 -668
-273 -1098 -41 -109 -222 -472 -280 -563 -174 -272 -286 -425 -369 -505 -56
-55 -143 -109 -169 -105 -51 7 -16 119 67 217 43 50 270 370 303 428 277 472
387 728 495 1158 30 117 69 370 70 446 0 44 6 74 17 91 24 35 106 128 113 128
3 0 12 -18 19 -40z m-2073 13 c3 -10 14 -37 24 -60 22 -48 23 -57 8 -47 -8 4
-9 0 -4 -15 5 -17 2 -21 -14 -21 -17 0 -21 6 -21 35 0 20 5 35 12 35 6 0 3 9
-7 20 -10 11 -26 20 -35 20 -19 0 -34 26 -24 41 10 16 54 10 61 -8z m-3364
-25 c-6 -11 -43 -10 -43 1 0 5 11 8 24 7 13 0 22 -4 19 -8z m4644 -80 c-3 -8
-6 -5 -6 6 -1 11 2 17 5 13 3 -3 4 -12 1 -19z m336 -68 c-6 -22 -7 -22 -13 -4
-4 10 -2 22 4 26 15 10 16 6 9 -22z m-673 6 c0 -3 -4 -8 -10 -11 -5 -3 -10 -1
-10 4 0 6 5 11 10 11 6 0 10 -2 10 -4z m960 -2 c0 -32 -75 -103 -92 -86 -6 6
-3 14 9 23 10 8 26 26 36 42 15 23 47 38 47 21z m-120 -137 c0 -7 -9 -19 -20
-27 -11 -8 -20 -20 -20 -27 0 -7 -7 -10 -15 -7 -12 5 -10 12 12 39 30 36 43
43 43 22z m-946 -47 c12 0 26 -61 26 -112 0 -30 -17 -12 -24 26 -4 20 -13 47
-21 62 -8 15 -11 32 -8 38 4 6 8 6 11 -2 2 -7 9 -12 16 -12z m811 -102 c-7
-23 -163 -188 -177 -188 -25 0 2 41 78 120 89 92 110 107 99 68z m-1325 -88
c-17 -51 -30 -51 -30 1 0 22 4 38 9 34 5 -3 13 0 16 6 15 23 18 -3 5 -41z
m-5755 -15 c72 -8 189 -21 260 -29 72 -9 180 -20 240 -25 61 -6 180 -17 265
-25 308 -30 1088 -62 1133 -46 34 11 42 7 42 -23 0 -14 8 -23 25 -28 14 -4 19
-7 11 -8 -10 -1 -5 -11 14 -31 31 -32 60 -43 32 -12 -10 10 -17 22 -17 25 0
15 58 6 73 -10 16 -19 70 -147 112 -267 14 -38 29 -74 33 -80 5 -6 19 -44 31
-85 12 -41 45 -128 73 -195 28 -67 86 -213 128 -325 43 -112 83 -208 88 -213
9 -9 28 128 24 181 -2 27 14 61 28 61 6 0 10 -15 10 -33 0 -21 7 -38 19 -46
19 -14 19 -15 -1 -70 -29 -81 -42 -111 -48 -111 -16 0 -6 -64 19 -134 17 -43
32 -80 35 -83 11 -12 99 21 121 45 13 14 44 68 69 121 26 53 62 125 80 161 18
36 48 107 66 158 18 50 37 92 42 92 5 0 17 20 28 45 11 25 30 50 42 56 22 9
52 49 70 92 4 10 19 33 33 51 14 18 25 43 25 54 0 12 5 22 11 22 8 0 8 4 -1
15 -6 8 -9 19 -5 26 6 8 10 8 16 -2 6 -10 9 -9 14 6 4 11 11 30 16 43 5 13 7
28 4 33 -4 5 1 9 9 9 9 0 16 5 16 10 0 6 5 10 10 10 21 0 6 -112 -22 -155 -3
-5 -18 -32 -33 -60 -15 -27 -41 -68 -56 -90 -16 -22 -56 -77 -89 -123 -33 -45
-70 -110 -81 -143 -12 -34 -44 -98 -72 -143 -100 -162 -137 -236 -137 -274 0
-10 31 -12 125 -11 118 1 129 -1 181 -26 31 -15 52 -30 48 -34 -5 -3 -14 -15
-20 -26 -23 -42 -58 -49 -266 -49 -109 -1 -198 -3 -198 -6 2 -19 70 -117 88
-125 24 -11 25 -32 7 -147 -7 -45 -6 -47 24 -62 22 -12 31 -24 31 -41 l0 -24
-110 3 c-94 3 -113 6 -125 22 -7 11 -36 82 -64 159 -27 77 -70 193 -95 258
-25 65 -46 125 -46 134 0 8 -6 29 -14 46 -8 18 -32 75 -54 127 -22 52 -63 147
-90 210 -112 260 -262 627 -262 640 0 9 -26 69 -59 138 -24 49 -70 97 -82 85
-7 -7 3 -38 32 -94 23 -46 70 -156 105 -244 68 -174 171 -422 264 -635 32 -74
64 -148 70 -165 6 -16 14 -39 19 -50 5 -11 21 -51 34 -90 94 -263 152 -414
168 -443 22 -39 11 -87 -19 -79 -45 12 -415 73 -502 82 -108 12 -479 66 -715
105 -132 21 -301 48 -375 60 -74 12 -193 32 -265 45 -71 13 -149 26 -172 30
-38 6 -48 14 -91 73 -27 37 -73 112 -102 167 -53 99 -154 284 -256 465 -29 52
-89 174 -134 270 -44 96 -85 184 -90 195 -29 63 -100 226 -100 231 0 5 -31 77
-56 128 -8 17 -17 47 -20 67 -6 34 -4 38 17 41 13 1 76 -2 139 -9 408 -40 673
-56 678 -38 1 6 -19 11 -45 12 -221 12 -602 51 -620 65 -6 5 -39 9 -73 9 -52
1 -67 5 -90 26 -27 24 -44 66 -31 79 8 8 241 -4 406 -21z m3019 -44 c-16 -73
-25 -78 -49 -31 -14 27 -14 33 0 61 16 30 17 30 36 13 13 -12 17 -25 13 -43z
m2726 -25 c0 -8 -4 -18 -10 -21 -5 -3 -10 3 -10 14 0 12 5 21 10 21 6 0 10 -6
10 -14z m-13 -68 c-3 -8 -6 -5 -6 6 -1 11 2 17 5 13 3 -3 4 -12 1 -19z m-360
-100 c-3 -8 -6 -5 -6 6 -1 11 2 17 5 13 3 -3 4 -12 1 -19z m-1528 -90 c96
-105 111 -123 111 -133 0 -5 -17 10 -38 35 -20 25 -50 58 -67 75 -54 55 -79
85 -70 85 4 0 33 -28 64 -62z m-104 20 c14 -12 25 -26 25 -31 0 -4 7 -15 15
-23 8 -9 15 -21 15 -27 0 -7 -12 0 -25 16 -13 15 -27 27 -30 27 -46 -2 -51 1
-49 28 3 34 2 32 14 32 5 0 21 -10 35 -22z m2537 -123 l-4 -100 -14 45 c-11
36 -11 58 -3 108 6 35 14 60 18 55 3 -4 5 -53 3 -108z m-902 -28 c0 -11 -5
-17 -12 -15 -18 6 -32 52 -23 74 7 17 9 16 21 -11 7 -16 13 -38 14 -48z m-64
28 c16 -39 19 -85 5 -85 -5 0 -12 14 -15 30 -3 17 -9 44 -12 60 -8 40 4 38 22
-5z m-2277 9 c2 -2 1 -10 -3 -19 -10 -26 -60 -16 -64 13 -3 22 -1 23 30 17 18
-4 35 -9 37 -11z m81 -20 c0 -7 6 -11 14 -8 11 4 16 -10 21 -56 8 -68 -2 -210
-15 -210 -4 0 -11 -27 -14 -61 -6 -46 -13 -67 -31 -83 -46 -42 -97 -81 -116
-90 -10 -5 -19 -13 -19 -17 0 -5 -15 -16 -32 -25 -18 -9 -43 -25 -55 -36 l-21
-20 -17 26 c-10 14 -21 26 -26 26 -4 0 -33 -38 -63 -84 -30 -46 -63 -86 -73
-90 -10 -3 -24 -9 -30 -12 -32 -14 -8 34 37 78 27 26 46 48 41 48 -23 0 -19
33 7 57 27 26 54 39 205 103 43 18 83 42 88 52 9 16 13 17 25 7 13 -10 17 -10
25 2 5 8 9 23 9 33 0 11 8 28 18 39 16 19 16 19 -4 13 -11 -3 -40 1 -64 9 -23
8 -44 15 -45 15 -2 0 1 -19 6 -41 6 -23 8 -43 7 -44 -20 -13 -178 -100 -228
-124 -36 -18 -74 -41 -86 -52 -24 -22 -34 -24 -34 -6 0 13 84 68 133 86 53 20
85 51 91 90 3 20 21 61 40 91 20 30 36 63 36 72 0 27 66 86 110 99 35 11 42
10 59 -5 18 -16 18 -15 13 31 -3 28 -12 55 -23 66 -23 22 -25 49 -4 41 8 -4
15 -12 15 -20z m130 -184 c0 -5 -5 -10 -11 -10 -5 0 -7 5 -4 10 3 6 8 10 11
10 2 0 4 -4 4 -10z m2257 -22 c-3 -8 -6 -5 -6 6 -1 11 2 17 5 13 3 -3 4 -12 1
-19z m213 -108 c0 -5 -5 -10 -11 -10 -5 0 -7 5 -4 10 3 6 8 10 11 10 2 0 4 -4
4 -10z m-580 -96 c0 -8 -5 -12 -10 -9 -6 4 -8 11 -5 16 9 14 15 11 15 -7z
m-591 -61 c45 -5 40 -23 -6 -23 -35 0 -28 -14 29 -64 29 -25 49 -46 45 -46
-11 0 -84 48 -92 60 -10 16 -86 50 -114 50 -25 1 -24 2 9 20 20 11 46 16 60
13 14 -2 45 -7 69 -10z m-195 -22 c5 -8 -22 -18 -121 -42 -29 -7 -53 -18 -53
-25 0 -11 -55 -36 -128 -59 -17 -5 -21 -12 -17 -26 4 -10 2 -19 -4 -19 -5 0
-12 -13 -16 -30 -4 -18 -13 -30 -22 -30 -9 0 -26 -11 -39 -25 -16 -17 -34 -25
-57 -25 -18 0 -38 -5 -45 -12 -9 -9 -15 -9 -24 1 -11 10 -8 16 12 32 l25 20
-32 -3 c-21 -2 -41 4 -55 16 l-22 19 46 21 c26 12 55 29 65 38 11 10 30 19 43
20 13 2 34 12 46 24 26 23 77 40 179 60 39 7 99 22 135 33 77 23 77 23 84 12z
m-321 -11 c20 0 -9 -21 -32 -23 -11 -1 -21 -5 -21 -10 0 -4 -8 -7 -18 -5 -11
2 -26 -3 -35 -10 -14 -12 -15 -11 -4 11 11 24 60 47 85 41 8 -2 19 -4 25 -4z
m693 -17 c-7 -7 -26 7 -26 19 0 6 6 6 15 -2 9 -7 13 -15 11 -17z m-41 -33 c4
-6 -7 -10 -27 -9 -27 0 -30 2 -13 9 27 12 33 12 40 0z m298 -69 c37 -1 31 -24
-9 -32 -17 -3 -40 1 -56 10 -37 20 -35 26 4 24 18 -1 46 -2 61 -2z m-1243 -25
c0 -3 -36 -40 -80 -84 -44 -44 -80 -88 -80 -97 0 -15 -72 -104 -90 -113 -12
-5 -8 39 5 71 16 37 129 150 195 195 48 33 50 34 50 28z m653 -41 c42 -13 54
-21 44 -27 -14 -7 -127 36 -127 49 0 3 6 3 13 1 6 -3 38 -13 70 -23z m-618
-74 c3 -5 1 -12 -5 -16 -5 -3 -10 1 -10 9 0 18 6 21 15 7z m-140 -138 c22 -33
23 -38 9 -46 -8 -5 -17 -7 -18 -5 -28 38 -46 68 -46 77 0 24 31 9 55 -26z
m1015 2 c-7 -8 -19 -15 -27 -15 -11 0 -11 3 -1 15 18 20 45 21 28 0z m-1209
-124 c-8 -21 -9 -13 -9 39 0 62 0 63 9 26 6 -25 6 -49 0 -65z m1464 69 c-3 -5
-10 -10 -16 -10 -5 0 -9 5 -9 10 0 6 7 10 16 10 8 0 12 -4 9 -10z m-1403 -140
c134 0 296 -9 318 -18 16 -6 30 -6 42 2 14 8 23 5 44 -14 l26 -25 -7 23 c-6
20 -4 23 12 19 10 -3 41 -9 70 -12 48 -6 53 -5 68 19 18 28 35 26 35 -4 0 -11
-10 -20 -25 -24 -26 -7 -35 -26 -12 -26 6 0 24 -6 39 -14 15 -8 93 -21 175
-30 81 -9 184 -21 228 -26 44 -5 127 -14 185 -20 58 -6 143 -15 190 -20 47 -5
137 -14 200 -20 133 -13 145 -14 345 -36 244 -26 443 -63 777 -143 70 -17 138
-31 150 -31 13 1 59 16 103 35 44 18 81 32 83 30 14 -14 -64 -105 -91 -105 -5
0 -35 -11 -66 -24 -137 -60 -497 -178 -851 -281 -63 -18 -128 -38 -145 -44
-16 -5 -131 -39 -255 -76 -124 -36 -252 -74 -285 -84 -33 -11 -139 -40 -235
-66 -96 -25 -215 -59 -265 -75 -49 -15 -133 -40 -185 -55 -52 -15 -135 -40
-184 -56 -49 -16 -92 -26 -96 -24 -4 3 -169 32 -366 65 -198 34 -377 65 -399
70 -22 5 -148 27 -280 49 -223 37 -359 61 -560 97 -310 57 -459 84 -520 95
-85 14 -472 88 -520 98 -22 5 -138 26 -257 45 -120 20 -293 52 -385 71 -93 20
-193 40 -223 46 -30 6 -113 22 -185 36 -71 14 -149 29 -173 33 -23 4 -48 14
-55 23 -6 9 -25 21 -40 27 -16 5 -25 15 -22 20 14 22 84 59 141 73 32 9 120
32 194 51 75 20 145 36 157 36 19 0 133 -47 133 -55 0 -2 -24 -8 -52 -14 -29
-6 -64 -14 -78 -17 -14 -3 -65 -13 -115 -24 -49 -10 -115 -25 -145 -33 -51
-14 -53 -15 -30 -24 14 -6 72 -18 130 -28 129 -21 203 -35 440 -85 102 -21
271 -53 375 -70 105 -16 307 -53 450 -81 143 -28 325 -61 405 -74 80 -13 219
-37 310 -55 186 -35 244 -45 740 -129 195 -33 375 -64 400 -70 89 -20 417 -70
500 -76 84 -6 88 -6 305 60 121 36 267 79 325 94 137 38 311 87 540 155 198
58 399 118 545 161 281 83 650 197 665 206 10 5 -1 8 -33 9 -27 0 -92 11 -145
24 -53 14 -144 34 -202 45 -111 21 -598 83 -785 100 -60 6 -157 15 -215 21
-58 5 -181 17 -275 25 -93 9 -183 18 -200 21 -16 2 -100 16 -185 30 -222 36
-235 37 -274 30 -41 -8 -54 -37 -38 -85 6 -16 8 -32 4 -35 -7 -8 -3 -119 5
-126 3 -3 8 1 10 8 3 7 18 19 35 28 23 12 33 13 44 3 11 -9 14 -9 14 1 0 6 9
23 20 37 11 14 20 35 20 47 0 30 11 43 40 47 22 4 25 1 22 -24 -2 -15 -14 -53
-27 -85 -12 -31 -26 -73 -29 -92 -10 -49 -36 -111 -58 -136 -11 -12 -27 -37
-37 -55 -10 -20 -28 -35 -40 -37 -12 -2 -19 -8 -15 -13 11 -18 -6 -81 -21 -76
-7 3 -21 -1 -32 -8 -14 -11 -69 -14 -266 -15 -149 0 -256 4 -267 10 -11 6 -45
46 -76 89 -34 48 -62 77 -69 75 -18 -7 -70 21 -89 47 -18 26 -50 19 -42 -9 11
-33 -22 -50 -95 -51 l-66 0 5 27 c2 15 16 43 31 62 14 19 25 42 23 50 -2 12
-1 13 6 1 7 -10 20 -12 48 -6 61 11 99 39 114 85 7 22 17 40 22 40 5 0 6 -4 3
-10 -3 -5 -8 -22 -10 -37 -2 -16 -6 -41 -10 -57 -7 -25 -6 -28 13 -22 13 4 31
1 46 -9 14 -9 39 -15 58 -13 l33 3 6 80 c4 44 10 119 14 167 7 73 5 91 -9 113
-16 24 -18 25 -47 9 -17 -8 -33 -13 -36 -10 -8 8 48 97 67 107 8 4 50 11 93
14 44 4 83 13 90 20 10 11 13 11 15 -1 2 -10 19 -14 54 -14z m-337 -200 c-3
-5 -12 -10 -18 -10 -7 0 -6 4 3 10 19 12 23 12 15 0z m-25 -75 c-6 -8 -9 -24
-5 -37 5 -20 4 -21 -5 -5 -12 19 -5 57 12 57 7 0 6 -5 -2 -15z m-149 -491 c12
-15 11 -16 -7 -10 -14 4 -26 -1 -41 -16 -29 -33 -33 -52 -18 -81 15 -29 9 -42
-12 -26 -15 13 -17 82 -3 110 6 10 19 19 30 19 10 0 22 5 25 10 8 13 10 13 26
-6z m1416 -56 c27 -36 -36 -106 -74 -82 -22 13 -29 60 -12 80 14 17 73 19 86
2z"/>
<path d="M4820 6659 c0 -7 -16 -28 -36 -46 -33 -33 -34 -36 -17 -49 10 -7 25
-14 34 -14 8 0 24 -6 34 -14 14 -10 25 -11 42 -3 32 14 45 0 78 -85 16 -40 36
-84 47 -97 12 -16 18 -41 18 -77 0 -42 3 -54 15 -54 25 0 65 -127 65 -205 0
-25 4 -45 9 -45 11 0 26 -56 22 -86 -1 -12 5 -24 14 -28 12 -4 16 -17 14 -43
-1 -21 4 -51 10 -68 7 -16 15 -43 18 -60 3 -16 10 -38 14 -47 5 -9 18 -68 30
-130 29 -164 30 -168 41 -168 29 0 -52 433 -97 520 -8 16 -10 32 -5 41 10 16
5 45 -21 109 -41 104 -89 244 -89 262 0 19 -28 79 -90 193 -52 96 -65 118 -85
150 -29 47 -65 71 -65 44z"/>
<path d="M4007 6639 c7 -7 15 -10 18 -7 3 3 -2 9 -12 12 -14 6 -15 5 -6 -5z"/>
<path d="M4370 6606 c0 -8 5 -18 10 -21 6 -3 10 1 10 9 0 8 -4 18 -10 21 -5 3
-10 -1 -10 -9z"/>
<path d="M4295 6510 c3 -5 8 -10 11 -10 2 0 4 5 4 10 0 6 -5 10 -11 10 -5 0
-7 -4 -4 -10z"/>
<path d="M4480 6451 c0 -6 9 -9 20 -8 11 1 20 5 20 9 0 4 -9 8 -20 8 -11 0
-20 -4 -20 -9z"/>
<path d="M4013 6373 c9 -2 23 -2 30 0 6 3 -1 5 -18 5 -16 0 -22 -2 -12 -5z"/>
<path d="M3095 6100 c-3 -5 -1 -10 4 -10 6 0 11 5 11 10 0 6 -2 10 -4 10 -3 0
-8 -4 -11 -10z"/>
<path d="M4050 6028 c0 -11 47 -10 55 1 3 5 -8 9 -25 9 -16 -1 -30 -5 -30 -10z"/>
<path d="M3924 6020 c-25 -10 -39 -70 -17 -70 8 0 25 -12 38 -26 28 -30 56
-26 73 12 16 34 15 42 -5 46 -15 3 -15 4 0 20 15 14 15 17 1 22 -8 3 -29 -1
-46 -10 -28 -15 -30 -15 -25 0 4 9 5 16 4 15 -1 0 -12 -4 -23 -9z"/>
<path d="M3840 5925 c-11 -13 -10 -14 4 -9 9 3 16 10 16 15 0 13 -6 11 -20 -6z"/>
<path d="M4681 5844 c-18 -21 -6 -30 14 -11 8 9 15 18 15 21 0 11 -15 5 -29
-10z"/>
<path d="M3065 5621 c-3 -5 -1 -12 5 -16 5 -3 10 1 10 9 0 18 -6 21 -15 7z"/>
<path d="M2808 5604 c-11 -11 -10 -52 2 -59 12 -7 14 -55 3 -55 -5 0 -8 -18
-8 -40 0 -35 6 -45 35 -68 19 -14 38 -32 42 -38 4 -7 24 -31 43 -54 19 -23 39
-59 45 -81 9 -32 21 -46 63 -73 46 -30 53 -32 61 -17 14 24 27 31 67 31 31 0
38 4 43 26 4 15 4 29 1 32 -3 3 -30 7 -60 8 -85 4 -124 21 -188 86 -42 43 -56
64 -52 78 3 10 1 21 -5 25 -5 3 -10 11 -10 18 0 6 6 2 14 -9 20 -26 29 -13 15
22 -6 16 -13 23 -16 17 -3 -7 -13 -13 -24 -13 -10 0 -19 6 -19 13 0 6 -7 26
-16 42 -9 17 -19 50 -22 73 -4 24 -10 40 -14 36z m28 -130 c-10 -26 3 -54 25
-54 22 0 24 -11 7 -28 -9 -9 -16 -8 -30 5 -24 21 -24 93 0 93 2 0 1 -7 -2 -16z"/>
<path d="M2991 5544 c0 -11 3 -14 6 -6 3 7 2 16 -1 19 -3 4 -6 -2 -5 -13z"/>
<path d="M2896 5513 c-8 -20 -9 -19 19 -37 25 -16 25 -16 25 17 0 25 -4 33
-19 34 -11 1 -22 -5 -25 -14z"/>
<path d="M2954 5440 c1 -33 10 -39 20 -14 10 26 7 44 -8 44 -8 0 -13 -11 -12
-30z"/>
<path d="M3185 5240 c-3 -5 -1 -10 4 -10 6 0 11 5 11 10 0 6 -2 10 -4 10 -3 0
-8 -4 -11 -10z"/>
<path d="M3262 5223 c-19 -4 -21 -7 -11 -19 10 -12 10 -17 0 -27 -10 -9 -12
-9 -9 2 5 22 -19 24 -25 2 -5 -21 9 -31 44 -31 16 0 19 -7 19 -47 1 -48 1 -48
18 -24 9 13 27 34 40 46 21 21 25 22 50 9 15 -8 35 -14 45 -14 21 0 23 26 2
34 -8 3 -15 12 -15 20 0 12 -5 14 -26 6 -35 -14 -44 -13 -44 5 0 8 -9 15 -20
15 -11 0 -20 7 -20 15 0 15 -6 16 -48 8z"/>
<path d="M3330 5220 c0 -5 4 -10 9 -10 6 0 13 5 16 10 3 6 -1 10 -9 10 -9 0
-16 -4 -16 -10z"/>
<path d="M4457 5185 c-20 -19 -11 -52 20 -72 17 -11 21 -19 14 -26 -14 -14
-14 -77 -1 -77 15 0 30 35 30 70 0 23 -6 33 -24 40 -22 8 -24 14 -19 45 6 38
2 43 -20 20z"/>
<path d="M4360 5134 c0 -8 5 -12 10 -9 6 4 8 11 5 16 -9 14 -15 11 -15 -7z"/>
<path d="M4359 5093 c0 -5 -2 -34 -3 -66 -2 -47 -7 -62 -31 -87 -37 -39 -16
-40 59 -5 72 34 93 58 80 93 -7 18 -17 26 -29 25 -10 -1 -28 9 -40 23 -21 24
-34 30 -36 17z m39 -117 c-10 -24 -38 -44 -38 -28 0 9 38 52 45 52 3 0 0 -11
-7 -24z"/>
<path d="M4310 4984 c0 -41 16 -38 22 6 3 20 0 30 -9 30 -8 0 -13 -13 -13 -36z"/>
<path d="M4506 4943 c-6 -14 -5 -15 5 -6 7 7 10 15 7 18 -3 3 -9 -2 -12 -12z"/>
<path d="M3850 4900 c0 -5 7 -10 15 -10 8 0 15 5 15 10 0 6 -7 10 -15 10 -8 0
-15 -4 -15 -10z"/>
<path d="M4275 4900 c3 -5 11 -10 16 -10 6 0 7 5 4 10 -3 6 -11 10 -16 10 -6
0 -7 -4 -4 -10z"/>
<path d="M5142 4848 c-14 -57 -15 -81 -3 -73 11 6 25 87 19 107 -3 7 -10 -9
-16 -34z"/>
<path d="M3275 4779 c-11 -17 1 -21 15 -4 8 9 8 15 2 15 -6 0 -14 -5 -17 -11z"/>
<path d="M3492 4678 c-5 -7 -13 -24 -16 -38 l-7 -25 20 24 c12 13 21 29 21 37
0 17 -5 18 -18 2z"/>
<path d="M3820 4625 c-11 -13 -15 -13 -21 -3 -7 10 -9 9 -9 -3 0 -9 -8 -23
-17 -30 -14 -12 -16 -12 -11 1 4 11 0 16 -13 16 -11 0 -22 -8 -25 -18 -3 -10
-11 -18 -19 -18 -12 0 -75 -64 -75 -76 0 -3 19 9 42 28 40 31 78 45 78 27 0
-15 28 2 32 19 3 10 15 18 28 19 28 2 55 27 46 42 -10 15 -21 14 -36 -4z"/>
<path d="M5131 4624 c0 -11 3 -14 6 -6 3 7 2 16 -1 19 -3 4 -6 -2 -5 -13z"/>
<path d="M3205 4600 c3 -5 8 -10 11 -10 2 0 4 5 4 10 0 6 -5 10 -11 10 -5 0
-7 -4 -4 -10z"/>
<path d="M3450 4589 c0 -7 -7 -21 -17 -31 -9 -10 -11 -18 -6 -18 16 0 45 48
33 55 -6 3 -10 1 -10 -6z"/>
<path d="M5120 4530 c0 -5 5 -10 11 -10 5 0 7 5 4 10 -3 6 -8 10 -11 10 -2 0
-4 -4 -4 -10z"/>
<path d="M3634 4413 c-55 -58 -73 -83 -61 -83 1 0 33 34 70 75 85 93 78 99 -9
8z"/>
<path d="M3433 4457 c-4 -8 -16 -18 -26 -24 -14 -7 -66 -110 -67 -130 0 -1 12
2 28 6 17 5 28 15 30 29 2 12 8 19 14 16 6 -4 9 4 8 17 -1 13 -1 33 0 44 1 18
2 18 8 3 5 -13 11 -15 22 -8 13 9 13 11 1 19 -8 5 -11 16 -8 25 8 19 1 21 -10
3z"/>
<path d="M3112 4438 c-7 -7 -12 -22 -12 -34 0 -12 -6 -27 -14 -33 -8 -7 -18
-25 -21 -41 -3 -16 -13 -34 -21 -41 -8 -6 -14 -23 -14 -36 0 -20 -4 -24 -20
-20 -15 4 -20 0 -20 -13 0 -10 -6 -20 -12 -23 -10 -3 -10 -9 0 -26 6 -11 12
-30 12 -40 0 -35 -40 -125 -65 -148 -30 -27 -31 -33 -4 -33 12 0 19 -5 16 -12
-2 -8 -16 -12 -32 -10 -15 2 -35 -3 -44 -11 -9 -7 -28 -13 -43 -12 -25 1 -28
-2 -28 -34 l0 -34 20 23 c12 13 26 20 35 16 9 -3 27 1 41 10 28 19 29 17 9
-23 -15 -31 -12 -63 7 -63 6 0 26 9 44 21 27 16 34 27 34 52 0 18 12 54 26 81
18 35 28 72 33 130 7 69 29 153 61 231 8 18 20 54 26 80 2 6 6 20 10 33 7 24
-5 29 -24 10z"/>
<path d="M5090 4345 c0 -8 5 -15 10 -15 6 0 10 7 10 15 0 8 -4 15 -10 15 -5 0
-10 -7 -10 -15z"/>
<path d="M5796 4258 c25 -41 52 -72 77 -85 28 -14 28 -14 16 9 -7 13 -12 29
-11 36 2 7 -7 22 -20 32 -26 22 -74 28 -62 8z"/>
<path d="M3235 4194 c-11 -17 -23 -24 -36 -21 -17 5 -66 -26 -111 -70 -24 -22
-26 -170 -4 -179 20 -8 83 44 97 79 7 15 28 41 47 57 33 27 36 34 40 95 4 70
-5 81 -33 39z"/>
<path d="M3405 4210 c-4 -6 -3 -16 3 -22 13 -13 23 4 13 21 -7 10 -10 10 -16
1z"/>
<path d="M5905 4130 c3 -5 11 -10 16 -10 6 0 7 5 4 10 -3 6 -11 10 -16 10 -6
0 -7 -4 -4 -10z"/>
<path d="M3504 4098 c-38 -42 -48 -58 -35 -58 5 0 24 20 41 45 37 53 34 57 -6
13z"/>
<path d="M6445 4099 c4 -11 39 -87 78 -167 64 -131 75 -147 99 -150 39 -5 68
14 68 44 0 29 -57 133 -76 141 -8 3 -14 10 -14 15 0 17 -71 97 -105 118 -42
26 -58 26 -50 -1z"/>
<path d="M2895 4090 c3 -5 8 -10 11 -10 2 0 4 5 4 10 0 6 -5 10 -11 10 -5 0
-7 -4 -4 -10z"/>
<path d="M3380 4076 c0 -9 5 -16 10 -16 6 0 10 4 10 9 0 6 -4 13 -10 16 -5 3
-10 -1 -10 -9z"/>
<path d="M5700 4069 c0 -6 6 -23 14 -37 7 -15 20 -43 29 -64 15 -34 15 -37 -3
-53 -22 -20 -18 -35 11 -35 22 0 26 -28 4 -36 -19 -8 -20 -44 -1 -44 8 0 16
-5 18 -12 3 -8 14 -5 35 10 17 12 36 22 42 22 7 0 14 7 17 15 4 8 10 15 15 15
9 0 56 30 91 59 33 26 7 31 -32 6 -47 -30 -85 -32 -99 -6 -9 15 -5 23 21 45
29 24 31 28 18 51 -19 36 -30 31 -30 -14 0 -25 -5 -41 -14 -44 -21 -8 -26 15
-9 35 11 12 12 21 4 35 -9 16 -10 14 -11 -10 0 -26 -1 -27 -16 -13 -8 9 -24
16 -35 16 -12 0 -28 14 -40 35 -22 37 -29 42 -29 24z m130 -173 c0 -2 -11 -6
-25 -8 -13 -3 -22 -1 -19 3 5 9 44 13 44 5z"/>
<path d="M2845 3971 c-6 -11 9 -23 19 -14 9 9 7 23 -3 23 -6 0 -12 -4 -16 -9z"/>
<path d="M3320 3930 c0 -11 2 -20 5 -20 2 0 9 9 15 20 9 16 8 20 -5 20 -8 0
-15 -9 -15 -20z"/>
<path d="M5950 3851 c0 -4 -10 -6 -23 -4 -16 3 -30 -5 -50 -27 -34 -38 -32
-64 5 -68 20 -2 28 -10 33 -33 4 -16 18 -43 32 -60 20 -23 31 -29 50 -24 18 4
25 0 33 -17 11 -28 35 -58 44 -58 4 0 4 26 0 58 -7 61 -57 162 -79 162 -16 0
-31 53 -16 58 6 2 9 8 5 13 -7 11 -34 12 -34 0z m50 -191 c0 -5 -4 -10 -10
-10 -5 0 -10 5 -10 10 0 6 5 10 10 10 6 0 10 -4 10 -10z"/>
<path d="M2791 3814 c0 -11 3 -14 6 -6 3 7 2 16 -1 19 -3 4 -6 -2 -5 -13z"/>
<path d="M3344 3756 c-10 -8 -16 -17 -13 -20 3 -4 17 2 30 13 27 23 13 28 -17
7z"/>
<path d="M5800 3735 c0 -8 7 -15 15 -15 9 0 12 6 9 15 -4 8 -10 15 -15 15 -5
0 -9 -7 -9 -15z"/>
<path d="M6710 3688 c0 -18 18 -34 28 -24 3 4 -2 14 -11 23 -16 16 -17 16 -17
1z"/>
<path d="M5576 3643 c-6 -14 -5 -15 5 -6 7 7 10 15 7 18 -3 3 -9 -2 -12 -12z"/>
<path d="M5470 3489 c-14 -17 -24 -35 -22 -42 2 -6 -1 -20 -7 -31 -28 -59 -12
-146 27 -146 11 0 22 6 25 14 3 9 15 12 31 9 16 -3 26 -1 26 7 0 7 8 9 22 5
17 -6 20 -4 15 10 -4 9 -7 19 -7 21 0 3 -4 3 -9 -1 -17 -10 -21 12 -6 25 24
20 19 58 -7 62 -19 2 -23 8 -20 36 1 17 -2 32 -8 32 -5 0 -10 -6 -11 -12 0 -7
-6 -1 -13 14 l-12 27 -24 -30z"/>
<path d="M5346 3351 c-4 -7 -5 -15 -2 -18 9 -9 19 4 14 18 -4 11 -6 11 -12 0z"/>
<path d="M5864 3175 c-9 -21 -2 -26 13 -10 8 9 9 16 3 20 -6 3 -13 -1 -16 -10z"/>
<path d="M5906 3145 c4 -8 11 -15 16 -15 6 0 5 6 -2 15 -7 8 -14 15 -16 15 -2
0 -1 -7 2 -15z"/>
<path d="M6601 2933 c0 -5 4 -17 9 -28 8 -18 9 -17 9 8 1 15 -3 27 -9 27 -5 0
-10 -3 -9 -7z"/>
<path d="M6600 2846 c0 -8 5 -18 10 -21 6 -3 10 3 10 14 0 12 -4 21 -10 21 -5
0 -10 -6 -10 -14z"/>
<path d="M6416 2671 c-3 -5 1 -14 8 -20 16 -13 32 2 21 19 -8 12 -22 13 -29 1z"/>
<path d="M6113 2525 c15 -14 34 -39 42 -55 19 -36 35 -39 35 -7 0 27 -14 47
-50 71 -40 26 -59 20 -27 -9z"/>
<path d="M6101 2494 c0 -11 3 -14 6 -6 3 7 2 16 -1 19 -3 4 -6 -2 -5 -13z"/>
<path d="M5690 2170 c0 -5 4 -10 9 -10 6 0 13 5 16 10 3 6 -1 10 -9 10 -9 0
-16 -4 -16 -10z"/>
<path d="M3518 6419 c-22 -13 -23 -25 -2 -33 15 -6 43 17 44 37 0 10 -22 8
-42 -4z"/>
<path d="M4083 3880 c-13 -5 -23 -14 -23 -20 0 -16 26 -12 51 10 26 21 12 26
-28 10z"/>
<path d="M4013 3815 c-28 -33 -14 -32 17 0 13 14 19 25 14 25 -5 0 -19 -12
-31 -25z"/>
<path d="M8775 4620 c-3 -5 -1 -10 4 -10 6 0 11 5 11 10 0 6 -2 10 -4 10 -3 0
-8 -4 -11 -10z"/>
<path d="M8642 4410 c-6 -22 -12 -45 -12 -52 0 -14 47 29 62 56 8 16 7 18 -6
13 -10 -4 -16 -1 -16 8 0 29 -15 15 -28 -25z"/>
<path d="M8503 4363 c-7 -2 -13 -14 -13 -24 0 -11 5 -17 10 -14 6 3 10 0 10
-7 0 -8 5 -7 16 4 9 9 14 24 11 32 -7 16 -13 18 -34 9z"/>
<path d="M8150 4165 c-7 -8 -8 -15 -2 -15 5 0 15 7 22 15 7 8 8 15 2 15 -5 0
-15 -7 -22 -15z"/>
<path d="M8071 4050 c-2 -28 -23 -60 -39 -60 -7 0 -3 -18 10 -45 12 -25 26
-45 30 -45 4 0 8 -9 8 -19 0 -10 6 -21 13 -24 21 -8 74 22 80 45 7 24 -37 88
-60 88 -9 0 -13 6 -9 15 3 9 0 15 -9 15 -7 0 -16 12 -18 28 -4 26 -4 26 -6 2z"/>
<path d="M8170 4056 c0 -8 4 -17 9 -20 10 -7 23 19 14 28 -11 11 -23 6 -23 -8z"/>
<path d="M8400 3995 c0 -8 2 -15 4 -15 2 0 6 7 10 15 3 8 1 15 -4 15 -6 0 -10
-7 -10 -15z"/>
<path d="M7980 3776 c0 -76 18 -101 44 -62 23 36 21 102 -3 116 -36 19 -41 12
-41 -54z"/>
<path d="M8161 3741 c-12 -8 -11 -15 5 -48 18 -36 19 -37 22 -13 4 39 -10 71
-27 61z"/>
<path d="M7302 3718 c0 -7 -4 -24 -8 -37 -5 -18 -4 -23 7 -19 17 5 25 46 12
59 -6 6 -10 5 -11 -3z"/>
<path d="M7640 3709 c0 -5 5 -7 10 -4 6 3 10 8 10 11 0 2 -4 4 -10 4 -5 0 -10
-5 -10 -11z"/>
<path d="M7240 3659 c9 -16 14 -18 26 -9 17 15 9 30 -17 30 -17 0 -18 -3 -9
-21z"/>
<path d="M7596 3664 c-9 -23 -7 -38 7 -57 10 -15 12 -11 13 28 1 45 -9 59 -20
29z"/>
<path d="M7816 3453 c-11 -11 -6 -23 9 -23 8 0 15 4 15 9 0 13 -16 22 -24 14z"/>
<path d="M7505 3400 c-3 -5 -1 -10 4 -10 6 0 11 5 11 10 0 6 -2 10 -4 10 -3 0
-8 -4 -11 -10z"/>
<path d="M7330 3310 c0 -19 3 -21 12 -12 9 9 9 15 0 24 -9 9 -12 7 -12 -12z"/>
<path d="M7323 3273 c-7 -2 -13 -11 -13 -19 0 -8 6 -11 15 -8 17 7 21 -11 5
-21 -14 -8 -13 -18 4 -41 15 -19 15 -19 30 1 8 11 15 27 15 35 0 14 -32 61
-41 59 -1 0 -9 -3 -15 -6z"/>
<path d="M7428 3228 c-10 -18 -20 -46 -24 -63 -4 -16 -11 -36 -16 -42 -6 -7
-7 -25 -3 -40 l7 -28 39 44 c27 30 39 53 39 73 0 24 -3 29 -16 24 -14 -5 -16
-1 -11 29 3 19 5 35 4 35 -2 0 -10 -15 -19 -32z"/>
<path d="M7110 1691 c0 -6 4 -13 10 -16 6 -3 7 1 4 9 -7 18 -14 21 -14 7z"/>
<path d="M6705 1510 c-3 -5 -2 -10 4 -10 5 0 13 5 16 10 3 6 2 10 -4 10 -5 0
-13 -4 -16 -10z"/>
<path d="M7130 1455 c0 -8 2 -15 4 -15 2 0 6 7 10 15 3 8 1 15 -4 15 -6 0 -10
-7 -10 -15z"/>
<path d="M7092 1441 c-8 -5 -12 -22 -10 -46 4 -48 27 -60 25 -13 0 18 3 41 7
51 9 18 -1 22 -22 8z"/>
<path d="M7131 1374 c0 -11 3 -14 6 -6 3 7 2 16 -1 19 -3 4 -6 -2 -5 -13z"/>
<path d="M7100 1309 c0 -5 5 -7 10 -4 6 3 10 8 10 11 0 2 -4 4 -10 4 -5 0 -10
-5 -10 -11z"/>
<path d="M4471 3601 c-7 -5 -21 -6 -31 -4 -27 7 -32 -12 -10 -32 11 -10 20
-24 20 -32 0 -13 36 -18 64 -7 19 7 20 42 2 67 -15 19 -24 21 -45 8z"/>
<path d="M4367 3383 c-4 -3 -7 -11 -7 -17 0 -6 5 -5 12 2 6 6 9 14 7 17 -3 3
-9 2 -12 -2z"/>
<path d="M4591 3284 c0 -11 3 -14 6 -6 3 7 2 16 -1 19 -3 4 -6 -2 -5 -13z"/>
<path d="M1480 2850 c19 -5 105 -12 190 -14 129 -4 138 -3 55 3 -231 19 -281
21 -245 11z"/>
<path d="M1901 2826 c2 -2 45 -6 94 -9 54 -4 78 -2 60 2 -30 9 -162 14 -154 7z"/>
<path d="M2260 2800 c0 -5 21 -10 48 -10 34 0 43 3 32 10 -20 13 -80 13 -80 0z"/>
<path d="M2380 2791 c35 -11 179 -22 155 -12 -11 4 -56 11 -100 14 -44 3 -69
2 -55 -2z"/>
<path d="M3640 1366 c0 -8 5 -18 10 -21 6 -3 10 3 10 14 0 12 -4 21 -10 21 -5
0 -10 -6 -10 -14z"/>
<path d="M4873 1894 c-3 -8 0 -21 6 -27 10 -9 16 -8 26 7 8 10 12 23 9 27 -9
15 -34 10 -41 -7z"/>
<path d="M4859 1088 c-12 -57 0 -80 27 -54 8 9 23 20 32 25 9 5 15 12 12 14
-6 6 -70 20 -71 15z"/>
<path d="M4115 980 c3 -5 16 -10 28 -9 21 0 21 1 2 9 -28 12 -37 12 -30 0z"/>
<path d="M4180 960 c0 -5 5 -10 10 -10 6 0 10 5 10 10 0 6 -4 10 -10 10 -5 0
-10 -4 -10 -10z"/>
</g>
</svg>
