<?xml version="1.0" standalone="no"?>
<!DOCTYPE svg PUBLIC "-//W3C//DTD SVG 20010904//EN"
 "http://www.w3.org/TR/2001/REC-SVG-20010904/DTD/svg10.dtd">
<svg version="1.0" xmlns="http://www.w3.org/2000/svg"
 width="746.000000pt" height="462.000000pt" viewBox="0 0 746.000000 462.000000"
 preserveAspectRatio="xMidYMid meet">

<g transform="translate(0.000000,462.000000) scale(0.100000,-0.100000)"
fill="#000000" stroke="none">
<path d="M2347 4110 c-34 -4 -71 -16 -87 -29 -16 -11 -32 -21 -35 -21 -20 0
-78 -59 -94 -96 -15 -32 -24 -42 -35 -38 -9 3 -16 1 -16 -5 0 -6 -4 -11 -10
-11 -5 0 -10 9 -10 20 0 11 -4 20 -10 20 -5 0 -10 -6 -10 -12 0 -7 -23 -35
-50 -62 -28 -27 -50 -52 -50 -56 0 -4 -16 -23 -35 -43 -19 -20 -35 -46 -35
-59 0 -13 -7 -32 -15 -42 -8 -11 -15 -32 -15 -47 0 -32 -34 -113 -66 -155 -39
-52 -84 -223 -84 -318 0 -151 52 -235 167 -270 60 -18 140 -19 186 -1 12 5 17
2 17 -9 0 -9 8 -16 18 -16 10 0 23 -5 30 -12 6 -6 15 -8 19 -4 4 4 1 11 -7 16
-8 5 -12 11 -9 15 3 3 18 -6 33 -20 l27 -25 -35 0 c-42 0 -66 -8 -66 -24 0
-14 164 -20 190 -6 38 20 69 57 152 185 87 133 99 143 178 164 67 18 75 18 72
1 -2 -8 -5 -24 -6 -35 -1 -11 -10 -35 -19 -52 -19 -35 -27 -193 -13 -225 6
-13 3 -15 -12 -11 -27 7 -40 -42 -17 -66 11 -13 15 -41 15 -114 0 -54 -4 -99
-10 -102 -6 -4 -7 -11 -4 -17 4 -6 1 -9 -7 -6 -8 2 -15 17 -17 31 -2 19 -9 27
-23 27 -10 0 -19 -6 -19 -13 0 -17 59 -86 60 -69 0 7 5 10 10 7 6 -3 10 -31
10 -60 0 -43 4 -56 18 -64 15 -8 23 -5 39 17 35 48 36 65 3 92 -29 24 -40 50
-20 50 6 0 10 18 10 40 0 27 4 40 13 40 8 0 18 9 23 19 12 26 51 11 65 -26 6
-16 21 -39 33 -53 37 -40 39 -57 8 -68 -38 -14 -69 -46 -88 -90 l-15 -37 43
-37 c53 -46 76 -51 216 -46 106 3 112 4 149 34 53 43 91 123 99 209 4 55 2 74
-9 90 -14 18 -17 18 -31 5 -9 -8 -21 -50 -27 -93 -15 -99 -58 -163 -117 -172
-20 -3 -48 -8 -62 -11 -19 -3 -21 -2 -10 5 13 9 13 12 -2 23 -10 7 -29 45 -43
83 -31 84 -42 109 -67 155 -11 19 -29 55 -40 80 -11 25 -30 58 -41 74 -17 24
-25 27 -55 23 l-34 -6 7 42 c3 23 13 98 20 167 8 69 20 160 26 203 7 42 9 80
5 84 -3 4 -20 -8 -37 -25 -17 -18 -38 -32 -46 -32 -8 0 -13 -7 -11 -17 4 -20
-38 -43 -79 -43 -41 0 -23 31 35 62 78 40 96 58 130 123 36 70 49 115 33 115
-6 0 -8 6 -5 14 3 8 0 17 -6 21 -12 7 -90 -65 -90 -83 0 -5 -10 -13 -22 -19
-13 -6 -45 -31 -73 -55 -52 -47 -89 -65 -99 -50 -5 8 172 183 225 225 24 18
39 70 27 91 -9 17 -11 17 -29 0 -10 -9 -19 -21 -19 -25 0 -5 -11 -24 -24 -43
-22 -33 -63 -70 -164 -148 -40 -31 -82 -37 -82 -12 0 21 -39 84 -52 84 -5 0
-23 14 -40 30 -27 27 -30 36 -26 74 6 47 57 186 68 186 4 0 10 -12 14 -27 3
-16 14 -39 25 -53 l19 -24 7 39 c3 22 10 48 16 57 17 32 10 38 -46 38 -67 0
-78 -13 -104 -124 -20 -84 -28 -98 -41 -76 -20 32 -26 38 -49 45 -23 7 -23 6
-16 -41 4 -27 12 -55 18 -63 14 -16 142 -101 153 -101 4 0 15 -7 25 -16 17
-15 17 -19 3 -45 -8 -16 -18 -29 -23 -29 -4 0 -28 -32 -52 -71 -24 -39 -64
-95 -89 -124 -25 -29 -60 -72 -79 -95 -60 -75 -200 -122 -264 -89 -43 22 -77
63 -97 116 -17 46 -18 62 -10 128 10 80 47 182 103 289 19 35 45 102 58 149
24 87 84 194 107 190 6 -2 20 9 30 22 30 38 49 33 44 -11 l-4 -36 53 55 c71
72 127 92 279 101 83 5 138 3 195 -8 125 -22 151 -38 299 -175 21 -20 45 -50
52 -68 8 -18 20 -36 27 -40 24 -15 75 -98 87 -143 13 -47 36 -86 78 -132 41
-45 94 -39 174 17 75 53 130 80 179 89 32 6 40 2 76 -34 23 -22 49 -40 57 -40
9 0 25 -6 36 -12 29 -19 53 0 66 52 14 59 41 66 149 39 44 -11 83 -24 87 -27
4 -4 12 -41 19 -82 7 -41 17 -78 23 -82 14 -10 87 0 104 14 6 6 12 28 12 50
l0 39 37 -26 c21 -14 44 -25 51 -25 15 0 57 -25 91 -54 45 -40 94 -128 95
-171 1 -25 6 -40 14 -39 6 1 23 2 37 3 15 0 25 7 25 16 0 21 13 19 68 -10 26
-14 58 -41 71 -60 13 -19 29 -35 35 -36 14 0 76 -85 76 -103 0 -8 -6 -16 -13
-19 -12 -4 29 -46 46 -47 13 0 26 44 16 55 -5 5 -9 14 -9 20 0 15 76 -76 179
-216 53 -72 171 -284 217 -389 16 -36 45 -93 66 -126 20 -34 49 -90 63 -125
15 -35 40 -83 55 -106 16 -23 36 -69 46 -102 9 -34 23 -66 30 -72 8 -6 14 -20
14 -30 0 -10 6 -22 13 -26 12 -8 29 -40 41 -76 3 -11 15 -21 26 -24 15 -4 20
-14 20 -42 0 -45 10 -81 21 -81 5 0 9 11 9 25 0 27 9 32 28 13 16 -16 15 -60
-3 -84 -8 -10 -15 -30 -15 -44 0 -14 -7 -36 -16 -48 -18 -26 -13 -38 11 -29 8
4 15 15 15 26 0 11 14 33 31 50 33 34 39 37 39 20 0 -18 51 -80 137 -169 55
-56 83 -92 83 -107 0 -17 14 -32 50 -54 28 -17 50 -34 50 -38 0 -5 35 -23 78
-41 42 -18 79 -36 82 -40 7 -12 100 -67 143 -86 20 -9 37 -20 37 -25 0 -4 55
-35 123 -68 91 -44 159 -68 266 -95 79 -20 154 -36 166 -36 13 0 27 -5 31 -11
8 -14 -114 -6 -276 18 -86 12 -122 23 -197 60 -83 41 -95 45 -130 36 -37 -10
-38 -10 -13 -20 105 -43 297 -89 434 -104 130 -14 118 -23 -44 -33 -161 -10
-326 12 -570 74 -24 6 -49 15 -55 20 -5 4 -104 56 -220 114 -115 58 -237 125
-270 150 -33 25 -72 48 -88 52 -15 3 -45 21 -68 39 -22 19 -79 58 -127 86 -48
29 -94 58 -102 65 -13 10 -91 47 -277 130 -17 8 -47 14 -66 14 -50 0 -67 9
-67 35 0 21 52 75 113 117 14 10 49 60 78 110 28 51 55 95 59 98 5 3 29 52 54
109 38 85 46 114 46 163 0 44 -4 60 -15 65 -22 8 -24 4 -46 -82 -20 -81 -140
-324 -188 -381 -22 -27 -34 -32 -85 -36 -80 -6 -100 -29 -91 -107 4 -31 18
-81 31 -111 47 -105 42 -180 -23 -318 -67 -143 -74 -173 -78 -347 -4 -158 -5
-160 -30 -182 -14 -13 -37 -23 -51 -23 -33 0 -107 44 -140 83 -15 18 -41 36
-58 42 -17 6 -32 17 -32 25 -1 8 -2 23 -3 33 0 9 -8 17 -16 17 -27 0 -21 30
37 170 6 14 13 77 16 140 4 106 2 121 -23 198 -21 63 -34 86 -51 94 -18 8 -30
31 -48 87 -14 42 -25 70 -25 64 -1 -17 -16 -16 -34 1 -13 14 -25 85 -47 291
-6 55 -18 138 -26 185 -27 164 -15 227 81 414 48 94 52 108 58 195 9 124 -3
146 -38 69 -14 -31 -32 -85 -39 -120 -15 -74 -44 -143 -87 -210 -45 -69 -58
-163 -43 -306 7 -62 16 -126 19 -143 l7 -31 -42 7 c-23 4 -66 16 -95 26 -30
10 -61 19 -68 19 -19 0 -267 84 -292 98 -11 7 -45 21 -77 32 -67 25 -156 94
-165 129 -4 17 1 37 16 61 12 19 31 55 43 80 11 25 40 86 64 135 24 50 49 114
55 143 7 28 16 52 21 52 5 0 6 5 3 10 -13 21 -57 10 -91 -24 -39 -39 -44 -66
-12 -66 20 0 20 -1 5 -18 -9 -10 -22 -34 -28 -53 -46 -141 -145 -271 -243
-318 -80 -39 -133 -50 -235 -51 -97 0 -102 11 -7 17 35 3 83 11 107 18 l44 14
-75 -5 c-41 -3 -103 -10 -137 -16 -64 -10 -83 -7 -83 17 0 23 -93 44 -231 51
-71 4 -129 10 -129 14 0 4 28 10 63 12 73 6 181 52 173 74 -3 7 0 16 6 20 7 5
5 10 -5 15 -9 5 -27 3 -46 -7 -17 -9 -37 -14 -44 -11 -7 3 -5 8 8 13 21 9 54
43 55 58 0 4 -12 6 -27 2 -26 -5 -26 -5 5 11 17 9 32 23 32 30 0 18 -17 17
-24 -2 -8 -21 -21 -19 -51 7 -35 30 -31 44 5 18 l30 -21 0 28 c0 47 -20 102
-40 113 -21 11 -20 2 7 -50 7 -14 13 -34 12 -45 0 -14 -6 -8 -19 19 -27 58
-98 82 -165 56 -18 -7 -25 -15 -21 -25 4 -10 -6 -20 -31 -30 -50 -21 -63 -18
-31 8 31 26 32 60 1 65 -15 2 -28 -9 -49 -42 -16 -24 -38 -47 -50 -50 -31 -8
-44 -43 -48 -123 -3 -65 -1 -73 15 -73 11 0 19 -9 21 -22 3 -20 10 -23 58 -26
94 -5 76 -19 -36 -25 -140 -9 -256 -9 -270 1 -6 4 -23 41 -37 82 -27 76 -59
161 -97 260 -45 113 -80 216 -80 234 0 28 -68 133 -103 160 -63 47 -138 70
-362 112 -44 8 -114 21 -155 29 -78 15 -217 19 -259 8 -21 -5 -23 -10 -17 -47
4 -23 10 -60 13 -83 3 -24 12 -48 19 -54 8 -6 14 -23 14 -36 0 -14 13 -42 29
-62 16 -20 34 -56 41 -81 6 -25 27 -73 46 -107 19 -34 34 -70 34 -80 0 -15 59
-141 98 -208 6 -11 21 -42 34 -70 12 -27 23 -52 25 -55 2 -3 -25 -11 -59 -17
-35 -7 -121 -29 -193 -49 -71 -20 -148 -41 -170 -46 -22 -6 -56 -17 -75 -25
-19 -9 -56 -21 -82 -28 -26 -7 -60 -22 -77 -34 -16 -12 -34 -21 -40 -21 -16 0
-14 -15 4 -30 8 -7 15 -24 15 -38 0 -14 4 -39 10 -56 5 -17 12 -44 15 -59 3
-15 13 -31 23 -34 31 -12 42 -31 42 -75 0 -24 5 -73 10 -110 9 -65 32 -385 45
-654 l7 -130 57 -13 c32 -7 69 -11 82 -9 22 3 25 9 31 78 4 41 9 245 10 453 2
207 4 377 4 377 1 0 34 -13 72 -30 39 -16 108 -42 154 -56 46 -14 97 -32 113
-39 77 -35 226 -89 277 -101 32 -8 86 -27 120 -43 35 -16 84 -39 110 -50 l47
-19 3 -409 c3 -454 4 -459 69 -482 34 -12 130 -15 167 -5 50 14 52 30 52 489
0 331 3 427 13 430 6 2 73 9 147 15 74 6 178 15 230 20 52 6 264 14 470 20
206 5 409 15 451 21 42 7 88 9 102 5 26 -6 27 -7 23 -79 -3 -39 -8 -125 -12
-190 -6 -114 -7 -117 -28 -110 -67 22 -154 -15 -140 -61 14 -48 85 -72 134
-46 17 9 19 3 25 -76 4 -47 5 -100 2 -119 -9 -54 15 -76 83 -76 30 -1 67 4 82
10 16 6 41 8 57 5 22 -5 34 -1 51 16 13 13 42 25 73 30 68 11 107 26 107 42 1
8 6 6 15 -6 13 -17 15 -17 29 -3 15 15 116 57 136 57 6 0 10 -4 10 -10 0 -5
13 -10 29 -10 29 0 41 14 41 50 0 10 10 20 23 24 32 9 35 8 40 -12 3 -14 6
-12 15 10 12 28 30 44 39 34 8 -7 -23 -78 -55 -127 -26 -40 -53 -56 -115 -65
-45 -7 -87 -28 -87 -45 0 -5 9 -20 20 -31 13 -15 17 -25 10 -32 -17 -17 -13
-21 62 -77 l73 -54 135 -1 c74 -1 160 -5 190 -10 79 -12 107 -7 154 24 l41 28
-4 149 c-2 95 1 167 8 195 16 59 67 186 94 230 17 29 21 52 21 137 l1 102 25
-6 c113 -25 264 -88 329 -137 19 -14 39 -26 43 -26 5 0 21 -11 36 -25 14 -13
53 -39 87 -56 33 -18 62 -35 65 -39 7 -9 109 -80 115 -80 3 0 38 -20 78 -44
39 -24 106 -58 147 -75 41 -18 83 -36 93 -42 102 -57 277 -136 337 -153 249
-70 821 -40 1013 53 47 23 47 23 41 64 -11 69 -6 67 -165 71 -139 4 -259 21
-343 50 -23 7 -66 21 -96 31 -30 10 -66 24 -79 32 -13 8 -51 30 -85 48 -98 53
-180 98 -191 107 -5 5 -30 25 -54 46 -24 20 -58 46 -76 57 -77 47 -265 212
-265 232 0 6 -22 33 -50 62 -77 81 -164 209 -241 359 -114 220 -175 344 -188
384 -7 21 -17 41 -23 44 -5 3 -27 45 -49 93 -22 47 -56 115 -75 151 -19 36
-46 90 -60 120 -14 30 -47 84 -73 120 -25 36 -64 91 -86 124 -22 32 -53 70
-70 85 -16 14 -44 47 -60 74 -17 26 -52 66 -80 90 -27 23 -74 67 -105 99 -59
60 -155 136 -234 183 -66 41 -73 45 -136 85 -147 94 -339 163 -521 187 -121
16 -135 16 -236 -1 -59 -9 -167 -37 -240 -62 -74 -25 -138 -42 -144 -39 -5 4
-22 32 -36 63 -14 31 -57 103 -94 159 -56 82 -83 113 -142 156 -40 30 -84 58
-97 62 -13 4 -32 18 -42 30 -20 26 -91 58 -174 80 -61 16 -177 18 -277 5z
m303 -64 c0 -3 -4 -8 -10 -11 -5 -3 -10 -1 -10 4 0 6 5 11 10 11 6 0 10 -2 10
-4z m60 -622 c0 -24 -91 -144 -109 -144 -5 0 -25 -14 -46 -30 -29 -23 -40 -27
-47 -18 -15 25 -7 38 55 82 34 24 78 61 96 80 32 33 51 44 51 30z m-265 -234
c-10 -11 -14 -26 -10 -38 3 -11 1 -23 -4 -27 -7 -4 -9 1 -5 12 3 11 -3 7 -16
-9 -27 -34 -50 -36 -50 -5 0 15 16 37 45 63 25 21 46 45 46 54 1 8 4 5 6 -8 3
-14 -3 -32 -12 -42z m2075 -15 c13 -14 21 -27 19 -30 -5 -4 -59 42 -59 50 0
12 19 3 40 -20z m-2187 -115 c-5 -19 -23 -29 -23 -12 0 7 20 32 26 32 1 0 0
-9 -3 -20z m2379 -17 c30 -36 30 -47 0 -19 -18 17 -32 31 -32 33 0 9 19 1 32
-14z m-2372 -22 c0 -4 -5 -22 -11 -40 -12 -34 -26 -36 -43 -7 -9 14 -6 21 13
37 25 20 41 24 41 10z m-160 -126 c-7 -9 -15 -13 -17 -11 -7 7 7 26 19 26 6 0
6 -6 -2 -15z m100 -29 c0 -8 -10 -22 -22 -30 -32 -23 -42 -20 -18 6 11 12 20
25 20 30 0 4 5 8 10 8 6 0 10 -6 10 -14z m426 -158 c4 -6 2 -14 -4 -16 -7 -2
-19 -10 -27 -19 -16 -16 -18 -10 -9 25 7 24 28 29 40 10z m-1453 -61 c10 -7
24 -38 33 -70 17 -66 8 -97 -30 -97 -19 0 -28 10 -45 51 -11 29 -21 69 -21 90
0 34 3 39 23 39 13 0 31 -6 40 -13z m1225 -186 c13 -8 -36 -21 -82 -21 -36 0
6 19 64 29 3 0 11 -3 18 -8z m-22 -70 c-15 -14 -18 -14 -26 -1 -7 10 -10 11
-10 3 0 -18 -25 -16 -41 4 -13 15 -11 16 11 11 14 -4 34 -3 45 2 28 11 40 1
21 -19z m60 1 c-9 -9 -37 8 -31 18 5 8 11 7 21 -1 8 -6 12 -14 10 -17z m-256
-7 c0 -2 -10 -9 -22 -15 -22 -11 -22 -10 -4 4 21 17 26 19 26 11z m256 -24
c-3 -5 -15 -7 -26 -4 -28 7 -25 13 6 13 14 0 23 -4 20 -9z m-71 -11 c38 -6 74
-15 79 -20 10 -10 -45 -26 -124 -35 -30 -4 -67 -10 -82 -15 -15 -5 -30 -5 -33
-1 -2 5 -18 7 -35 5 -34 -4 -37 2 -12 31 36 42 92 51 207 35z m-105 -88 c0 -5
15 -7 33 -5 28 2 24 -1 -28 -27 -54 -26 -95 -37 -95 -25 0 19 27 55 44 58 37
7 46 7 46 -1z m130 -56 c0 -3 -4 -8 -10 -11 -5 -3 -10 -1 -10 4 0 6 5 11 10
11 6 0 10 -2 10 -4z m-1387 -133 c-7 -2 -19 -2 -25 0 -7 3 -2 5 12 5 14 0 19
-2 13 -5z m2127 -8 c-7 -8 -18 -15 -24 -15 -6 0 -2 7 8 15 25 19 32 19 16 0z
m-2183 -1 c-3 -3 -12 -4 -19 -1 -8 3 -5 6 6 6 11 1 17 -2 13 -5z m-82 -24
c-11 -5 -29 -8 -40 -8 -16 0 -15 2 5 8 34 11 60 11 35 0z m470 -72 c94 -28
186 -56 205 -63 46 -17 132 -39 254 -66 95 -21 111 -22 415 -14 413 10 667 10
714 0 25 -5 37 -4 37 4 0 6 -8 11 -19 11 -23 0 -52 31 -34 37 7 2 10 10 7 17
-6 17 60 60 122 80 27 8 67 22 89 29 38 15 42 14 107 -19 36 -18 72 -42 80
-52 19 -27 42 -37 186 -86 71 -23 135 -47 143 -52 8 -5 23 -10 34 -11 11 -1
65 -17 120 -36 55 -19 120 -38 144 -42 25 -4 39 -10 32 -15 -9 -5 -11 -28 -5
-81 8 -86 25 -131 20 -52 -5 82 11 83 19 2 4 -50 18 -104 43 -164 l36 -90 -3
-174 c-2 -96 -7 -185 -12 -198 -9 -25 -30 -35 -127 -63 -70 -20 -72 -18 -71
40 1 19 -2 178 -6 352 -4 175 -4 333 -1 353 6 28 13 37 39 45 40 13 -203 6
-343 -9 -165 -19 -752 -47 -1255 -60 -193 -6 -359 -13 -369 -17 -19 -7 -44
-11 -94 -13 -18 0 -39 -9 -49 -20 -9 -11 -21 -18 -27 -16 -107 29 -541 175
-641 216 -38 15 -89 33 -111 39 -58 14 -176 53 -259 85 -38 15 -87 32 -108 37
-21 6 -36 15 -34 21 12 36 404 112 512 100 22 -2 117 -27 210 -55z m1605 33
c-20 -11 -114 -21 -103 -11 4 5 28 10 53 13 25 2 50 4 55 5 6 1 3 -2 -5 -7z
m-180 -21 c11 -7 6 -10 -22 -10 -20 0 -40 5 -43 10 -8 13 45 13 65 0z m-2102
-7 c-10 -2 -28 -2 -40 0 -13 2 -5 4 17 4 22 1 32 -1 23 -4z m-52 -128 c31 -14
65 -25 75 -25 16 0 102 -28 154 -50 11 -5 47 -17 80 -28 33 -11 123 -40 200
-66 77 -25 145 -46 152 -46 6 0 27 -9 45 -19 32 -19 92 -39 293 -101 158 -48
157 -48 149 -84 -4 -17 -7 -39 -6 -48 2 -42 -95 -16 -448 118 -19 7 -44 13
-56 14 -11 0 -24 4 -30 9 -5 4 -58 25 -119 45 -60 20 -118 41 -127 46 -10 6
-24 10 -31 10 -7 0 -35 11 -63 24 -76 37 -285 127 -329 143 -66 23 -83 38 -77
68 4 25 7 27 43 21 22 -3 64 -17 95 -31z m3202 -282 c-2 -30 -8 -39 -28 -44
-23 -6 -23 -7 -3 -8 33 -2 38 -20 8 -31 -31 -12 -45 -6 -46 18 0 13 -3 12 -11
-5 -14 -28 -32 -30 -25 -3 3 11 1 20 -4 20 -5 0 -10 -10 -10 -22 l-2 -23 -4
23 c-5 27 -28 24 -28 -4 0 -21 -32 -31 -48 -15 -7 7 -3 13 14 21 18 7 6 8 -46
4 -76 -7 -87 -11 -66 -23 7 -5 -27 -11 -81 -15 -92 -6 -181 -9 -663 -26 -299
-10 -723 -45 -923 -76 -23 -4 -32 -2 -27 5 3 6 17 11 31 11 19 0 25 5 22 17
-3 14 -12 17 -52 14 -46 -3 -48 -2 -41 21 10 32 41 54 100 74 39 13 117 18
355 24 168 5 348 11 400 14 52 4 262 13 465 22 204 9 424 22 490 29 66 7 144
13 173 14 l53 1 -3 -37z m909 -80 c-30 -30 -39 -35 -46 -24 -5 8 -7 19 -5 25
6 14 43 33 69 35 16 1 13 -6 -18 -36z m-4109 -58 c0 -43 -1 -46 -8 -20 -11 44
-11 116 0 90 5 -11 8 -42 8 -70z m89 -39 c-1 -44 0 -169 2 -276 5 -288 5 -300
-17 -300 -17 0 -20 18 -31 194 -12 181 -14 307 -7 366 2 14 4 44 5 66 1 38 3
41 25 37 24 -5 24 -8 23 -87z m3089 10 c-3 -17 -6 -119 -8 -226 -1 -145 -4
-188 -12 -167 -9 24 -15 27 -45 25 -34 -3 -36 -2 -35 30 0 17 -3 32 -7 32 -4
0 -3 15 2 33 6 23 5 46 -6 78 l-14 44 0 -45 c1 -25 0 -47 -1 -50 -7 -18 -8
-86 -1 -99 6 -11 2 -27 -13 -48 l-23 -33 -2 164 c-3 192 6 286 25 286 7 0 17
-19 22 -42 l10 -43 1 47 c1 46 2 47 29 44 15 -1 36 0 47 4 29 11 37 2 31 -34z
m-202 -158 c-1 -95 -2 -246 -3 -335 -1 -152 -2 -163 -20 -163 -41 0 -43 17
-43 317 -1 206 2 288 11 291 6 2 11 12 11 22 0 10 5 22 10 25 6 4 10 -8 10
-30 0 -23 4 -34 11 -30 5 4 9 17 8 28 -2 27 0 47 4 47 2 0 2 -78 1 -172z m-86
-171 l2 -327 -33 0 c-37 0 -35 -12 -35 155 -1 197 17 475 31 493 28 36 32 1
35 -321z m-1708 297 c0 -8 -4 -12 -10 -9 -5 3 -10 10 -10 16 0 5 5 9 10 9 6 0
10 -7 10 -16z m2060 -166 c-1 -124 -4 -178 -10 -166 -17 28 -11 348 6 348 2 0
4 -82 4 -182z m-1988 -10 c3 -57 5 -244 6 -415 l2 -313 -59 0 c-46 0 -61 4
-67 17 -4 10 -10 192 -12 404 l-4 387 39 10 c21 5 50 10 65 11 l26 1 4 -102z
m2338 -73 c35 -75 37 -91 11 -100 -11 -3 -34 -20 -51 -38 l-32 -32 6 90 c7
109 15 157 27 149 5 -3 23 -34 39 -69z m-350 -189 c0 -36 -4 -67 -9 -70 -14
-9 -23 59 -11 89 6 14 8 31 4 36 -3 5 0 9 5 9 7 0 11 -26 11 -64z m-490 33 c0
-6 -4 -7 -10 -4 -5 3 -10 11 -10 16 0 6 5 7 10 4 6 -3 10 -11 10 -16z m267
-51 c-3 -7 -5 -2 -5 12 0 14 2 19 5 13 2 -7 2 -19 0 -25z m173 -38 c0 -5 -5
-10 -11 -10 -5 0 -7 5 -4 10 3 6 8 10 11 10 2 0 4 -4 4 -10z m-115 -60 c8 -16
15 -31 15 -34 0 -3 -57 -26 -66 -26 -9 0 -3 52 8 70 17 27 25 25 43 -10z m434
-260 c40 -47 45 -73 6 -30 -10 11 -24 20 -31 20 -14 0 -34 30 -34 49 0 22 18
10 59 -39z m96 -18 c-2 -2 -12 -1 -22 3 -10 5 -21 7 -25 7 -5 -1 -8 10 -8 25
l0 27 30 -29 c16 -16 28 -31 25 -33z"/>
<path d="M3520 1480 c-22 -7 -21 -8 13 -9 20 -1 37 4 37 9 0 11 -14 11 -50 0z"/>
<path d="M3642 1130 c0 -14 2 -19 5 -12 2 6 2 18 0 25 -3 6 -5 1 -5 -13z"/>
<path d="M2426 2551 c-7 -11 44 -54 53 -45 3 4 0 9 -7 11 -6 3 -10 9 -7 13 3
5 -3 14 -14 20 -12 6 -22 6 -25 1z"/>
<path d="M2672 2333 c-9 -20 -9 -24 0 -15 9 9 17 7 34 -9 15 -14 24 -17 29 -9
5 8 -36 60 -48 60 -1 0 -8 -12 -15 -27z"/>
<path d="M2638 2283 c7 -3 16 -2 19 1 4 3 -2 6 -13 5 -11 0 -14 -3 -6 -6z"/>
<path d="M3095 2090 c-13 -6 -15 -9 -5 -9 8 0 22 4 30 9 18 12 2 12 -25 0z"/>
<path d="M4010 704 c-17 -10 -20 -14 -8 -14 23 0 48 11 48 21 0 12 -9 10 -40
-7z"/>
</g>
</svg>
